<svg xmlns="http://www.w3.org/2000/svg" viewBox="0 0 773.2 484" width="773.2" height="484">
  <rect x="0" y="0" width="773.2" height="484" fill="#0d0d0d" rx="0" ry="0"/>
  <g transform="translate(64, 64)">
    <g transform="translate(-64, -64)">
      <g class="overlay"><rect x="97" y="0" width="2" height="6" fill="#252525" shape-rendering="crispEdges"/></g>
      <g class="overlay"><rect x="97" y="10" width="2" height="6" fill="#252525" shape-rendering="crispEdges"/></g>
      <g class="overlay"><rect x="97" y="20" width="2" height="6" fill="#252525" shape-rendering="crispEdges"/></g>
      <g class="overlay"><rect x="97" y="30" width="2" height="6" fill="#252525" shape-rendering="crispEdges"/></g>
      <g class="overlay"><rect x="97" y="40" width="2" height="6" fill="#252525" shape-rendering="crispEdges"/></g>
      <g class="overlay"><rect x="97" y="50" width="2" height="6" fill="#252525" shape-rendering="crispEdges"/></g>
      <g class="overlay"><rect x="97" y="60" width="2" height="6" fill="#252525" shape-rendering="crispEdges"/></g>
      <g class="overlay"><rect x="97" y="70" width="2" height="6" fill="#252525" shape-rendering="crispEdges"/></g>
      <g class="overlay"><rect x="97" y="80" width="2" height="6" fill="#252525" shape-rendering="crispEdges"/></g>
      <g class="overlay"><rect x="97" y="90" width="2" height="6" fill="#252525" shape-rendering="crispEdges"/></g>
      <g class="overlay"><rect x="97" y="100" width="2" height="6" fill="#252525" shape-rendering="crispEdges"/></g>
      <g class="overlay"><rect x="97" y="110" width="2" height="6" fill="#252525" shape-rendering="crispEdges"/></g>
      <g class="overlay"><rect x="97" y="120" width="2" height="6" fill="#252525" shape-rendering="crispEdges"/></g>
      <g class="overlay"><rect x="97" y="130" width="2" height="6" fill="#252525" shape-rendering="crispEdges"/></g>
      <g class="overlay"><rect x="97" y="140" width="2" height="6" fill="#252525" shape-rendering="crispEdges"/></g>
      <g class="overlay"><rect x="97" y="150" width="2" height="6" fill="#252525" shape-rendering="crispEdges"/></g>
      <g class="overlay"><rect x="97" y="160" width="2" height="6" fill="#252525" shape-rendering="crispEdges"/></g>
      <g class="overlay"><rect x="97" y="170" width="2" height="6" fill="#252525" shape-rendering="crispEdges"/></g>
      <g class="overlay"><rect x="97" y="180" width="2" height="6" fill="#252525" shape-rendering="crispEdges"/></g>
      <g class="overlay"><rect x="97" y="190" width="2" height="6" fill="#252525" shape-rendering="crispEdges"/></g>
      <g class="overlay"><rect x="97" y="200" width="2" height="6" fill="#252525" shape-rendering="crispEdges"/></g>
      <g class="overlay"><rect x="97" y="210" width="2" height="6" fill="#252525" shape-rendering="crispEdges"/></g>
      <g class="overlay"><rect x="97" y="220" width="2" height="6" fill="#252525" shape-rendering="crispEdges"/></g>
      <g class="overlay"><rect x="97" y="230" width="2" height="6" fill="#252525" shape-rendering="crispEdges"/></g>
      <g class="overlay"><rect x="97" y="240" width="2" height="6" fill="#252525" shape-rendering="crispEdges"/></g>
      <g class="overlay"><rect x="97" y="250" width="2" height="6" fill="#252525" shape-rendering="crispEdges"/></g>
      <g class="overlay"><rect x="97" y="260" width="2" height="6" fill="#252525" shape-rendering="crispEdges"/></g>
      <g class="overlay"><rect x="97" y="270" width="2" height="6" fill="#252525" shape-rendering="crispEdges"/></g>
      <g class="overlay"><rect x="97" y="280" width="2" height="6" fill="#252525" shape-rendering="crispEdges"/></g>
      <g class="overlay"><rect x="97" y="290" width="2" height="6" fill="#252525" shape-rendering="crispEdges"/></g>
      <g class="overlay"><rect x="97" y="300" width="2" height="6" fill="#252525" shape-rendering="crispEdges"/></g>
      <g class="overlay"><rect x="97" y="310" width="2" height="6" fill="#252525" shape-rendering="crispEdges"/></g>
      <g class="overlay"><rect x="97" y="320" width="2" height="6" fill="#252525" shape-rendering="crispEdges"/></g>
      <g class="overlay"><rect x="97" y="330" width="2" height="6" fill="#252525" shape-rendering="crispEdges"/></g>
      <g class="overlay"><rect x="97" y="340" width="2" height="6" fill="#252525" shape-rendering="crispEdges"/></g>
      <g class="overlay"><rect x="97" y="350" width="2" height="6" fill="#252525" shape-rendering="crispEdges"/></g>
      <g class="overlay"><rect x="97" y="360" width="2" height="6" fill="#252525" shape-rendering="crispEdges"/></g>
      <g class="overlay"><rect x="97" y="370" width="2" height="6" fill="#252525" shape-rendering="crispEdges"/></g>
      <g class="overlay"><rect x="97" y="380" width="2" height="6" fill="#252525" shape-rendering="crispEdges"/></g>
      <g class="overlay"><rect x="97" y="390" width="2" height="6" fill="#252525" shape-rendering="crispEdges"/></g>
      <g class="overlay"><rect x="97" y="400" width="2" height="6" fill="#252525" shape-rendering="crispEdges"/></g>
      <g class="overlay"><rect x="97" y="410" width="2" height="6" fill="#252525" shape-rendering="crispEdges"/></g>
      <g class="overlay"><rect x="97" y="420" width="2" height="6" fill="#252525" shape-rendering="crispEdges"/></g>
      <g class="overlay"><rect x="97" y="430" width="2" height="6" fill="#252525" shape-rendering="crispEdges"/></g>
      <g class="overlay"><rect x="97" y="440" width="2" height="6" fill="#252525" shape-rendering="crispEdges"/></g>
      <g class="overlay"><rect x="97" y="450" width="2" height="6" fill="#252525" shape-rendering="crispEdges"/></g>
      <g class="overlay"><rect x="97" y="460" width="2" height="6" fill="#252525" shape-rendering="crispEdges"/></g>
      <g class="overlay"><rect x="97" y="470" width="2" height="6" fill="#252525" shape-rendering="crispEdges"/></g>
      <g class="overlay"><rect x="97" y="480" width="2" height="4" fill="#252525" shape-rendering="crispEdges"/></g>
      <g class="overlay"><rect x="194" y="0" width="2" height="6" fill="#252525" shape-rendering="crispEdges"/></g>
      <g class="overlay"><rect x="194" y="10" width="2" height="6" fill="#252525" shape-rendering="crispEdges"/></g>
      <g class="overlay"><rect x="194" y="20" width="2" height="6" fill="#252525" shape-rendering="crispEdges"/></g>
      <g class="overlay"><rect x="194" y="30" width="2" height="6" fill="#252525" shape-rendering="crispEdges"/></g>
      <g class="overlay"><rect x="194" y="40" width="2" height="6" fill="#252525" shape-rendering="crispEdges"/></g>
      <g class="overlay"><rect x="194" y="50" width="2" height="6" fill="#252525" shape-rendering="crispEdges"/></g>
      <g class="overlay"><rect x="194" y="60" width="2" height="6" fill="#252525" shape-rendering="crispEdges"/></g>
      <g class="overlay"><rect x="194" y="70" width="2" height="6" fill="#252525" shape-rendering="crispEdges"/></g>
      <g class="overlay"><rect x="194" y="80" width="2" height="6" fill="#252525" shape-rendering="crispEdges"/></g>
      <g class="overlay"><rect x="194" y="90" width="2" height="6" fill="#252525" shape-rendering="crispEdges"/></g>
      <g class="overlay"><rect x="194" y="100" width="2" height="6" fill="#252525" shape-rendering="crispEdges"/></g>
      <g class="overlay"><rect x="194" y="110" width="2" height="6" fill="#252525" shape-rendering="crispEdges"/></g>
      <g class="overlay"><rect x="194" y="120" width="2" height="6" fill="#252525" shape-rendering="crispEdges"/></g>
      <g class="overlay"><rect x="194" y="130" width="2" height="6" fill="#252525" shape-rendering="crispEdges"/></g>
      <g class="overlay"><rect x="194" y="140" width="2" height="6" fill="#252525" shape-rendering="crispEdges"/></g>
      <g class="overlay"><rect x="194" y="150" width="2" height="6" fill="#252525" shape-rendering="crispEdges"/></g>
      <g class="overlay"><rect x="194" y="160" width="2" height="6" fill="#252525" shape-rendering="crispEdges"/></g>
      <g class="overlay"><rect x="194" y="170" width="2" height="6" fill="#252525" shape-rendering="crispEdges"/></g>
      <g class="overlay"><rect x="194" y="180" width="2" height="6" fill="#252525" shape-rendering="crispEdges"/></g>
      <g class="overlay"><rect x="194" y="190" width="2" height="6" fill="#252525" shape-rendering="crispEdges"/></g>
      <g class="overlay"><rect x="194" y="200" width="2" height="6" fill="#252525" shape-rendering="crispEdges"/></g>
      <g class="overlay"><rect x="194" y="210" width="2" height="6" fill="#252525" shape-rendering="crispEdges"/></g>
      <g class="overlay"><rect x="194" y="220" width="2" height="6" fill="#252525" shape-rendering="crispEdges"/></g>
      <g class="overlay"><rect x="194" y="230" width="2" height="6" fill="#252525" shape-rendering="crispEdges"/></g>
      <g class="overlay"><rect x="194" y="240" width="2" height="6" fill="#252525" shape-rendering="crispEdges"/></g>
      <g class="overlay"><rect x="194" y="250" width="2" height="6" fill="#252525" shape-rendering="crispEdges"/></g>
      <g class="overlay"><rect x="194" y="260" width="2" height="6" fill="#252525" shape-rendering="crispEdges"/></g>
      <g class="overlay"><rect x="194" y="270" width="2" height="6" fill="#252525" shape-rendering="crispEdges"/></g>
      <g class="overlay"><rect x="194" y="280" width="2" height="6" fill="#252525" shape-rendering="crispEdges"/></g>
      <g class="overlay"><rect x="194" y="290" width="2" height="6" fill="#252525" shape-rendering="crispEdges"/></g>
      <g class="overlay"><rect x="194" y="300" width="2" height="6" fill="#252525" shape-rendering="crispEdges"/></g>
      <g class="overlay"><rect x="194" y="310" width="2" height="6" fill="#252525" shape-rendering="crispEdges"/></g>
      <g class="overlay"><rect x="194" y="320" width="2" height="6" fill="#252525" shape-rendering="crispEdges"/></g>
      <g class="overlay"><rect x="194" y="330" width="2" height="6" fill="#252525" shape-rendering="crispEdges"/></g>
      <g class="overlay"><rect x="194" y="340" width="2" height="6" fill="#252525" shape-rendering="crispEdges"/></g>
      <g class="overlay"><rect x="194" y="350" width="2" height="6" fill="#252525" shape-rendering="crispEdges"/></g>
      <g class="overlay"><rect x="194" y="360" width="2" height="6" fill="#252525" shape-rendering="crispEdges"/></g>
      <g class="overlay"><rect x="194" y="370" width="2" height="6" fill="#252525" shape-rendering="crispEdges"/></g>
      <g class="overlay"><rect x="194" y="380" width="2" height="6" fill="#252525" shape-rendering="crispEdges"/></g>
      <g class="overlay"><rect x="194" y="390" width="2" height="6" fill="#252525" shape-rendering="crispEdges"/></g>
      <g class="overlay"><rect x="194" y="400" width="2" height="6" fill="#252525" shape-rendering="crispEdges"/></g>
      <g class="overlay"><rect x="194" y="410" width="2" height="6" fill="#252525" shape-rendering="crispEdges"/></g>
      <g class="overlay"><rect x="194" y="420" width="2" height="6" fill="#252525" shape-rendering="crispEdges"/></g>
      <g class="overlay"><rect x="194" y="430" width="2" height="6" fill="#252525" shape-rendering="crispEdges"/></g>
      <g class="overlay"><rect x="194" y="440" width="2" height="6" fill="#252525" shape-rendering="crispEdges"/></g>
      <g class="overlay"><rect x="194" y="450" width="2" height="6" fill="#252525" shape-rendering="crispEdges"/></g>
      <g class="overlay"><rect x="194" y="460" width="2" height="6" fill="#252525" shape-rendering="crispEdges"/></g>
      <g class="overlay"><rect x="194" y="470" width="2" height="6" fill="#252525" shape-rendering="crispEdges"/></g>
      <g class="overlay"><rect x="194" y="480" width="2" height="4" fill="#252525" shape-rendering="crispEdges"/></g>
      <g class="overlay"><rect x="291" y="0" width="2" height="6" fill="#252525" shape-rendering="crispEdges"/></g>
      <g class="overlay"><rect x="291" y="10" width="2" height="6" fill="#252525" shape-rendering="crispEdges"/></g>
      <g class="overlay"><rect x="291" y="20" width="2" height="6" fill="#252525" shape-rendering="crispEdges"/></g>
      <g class="overlay"><rect x="291" y="30" width="2" height="6" fill="#252525" shape-rendering="crispEdges"/></g>
      <g class="overlay"><rect x="291" y="40" width="2" height="6" fill="#252525" shape-rendering="crispEdges"/></g>
      <g class="overlay"><rect x="291" y="50" width="2" height="6" fill="#252525" shape-rendering="crispEdges"/></g>
      <g class="overlay"><rect x="291" y="60" width="2" height="6" fill="#252525" shape-rendering="crispEdges"/></g>
      <g class="overlay"><rect x="291" y="70" width="2" height="6" fill="#252525" shape-rendering="crispEdges"/></g>
      <g class="overlay"><rect x="291" y="80" width="2" height="6" fill="#252525" shape-rendering="crispEdges"/></g>
      <g class="overlay"><rect x="291" y="90" width="2" height="6" fill="#252525" shape-rendering="crispEdges"/></g>
      <g class="overlay"><rect x="291" y="100" width="2" height="6" fill="#252525" shape-rendering="crispEdges"/></g>
      <g class="overlay"><rect x="291" y="110" width="2" height="6" fill="#252525" shape-rendering="crispEdges"/></g>
      <g class="overlay"><rect x="291" y="120" width="2" height="6" fill="#252525" shape-rendering="crispEdges"/></g>
      <g class="overlay"><rect x="291" y="130" width="2" height="6" fill="#252525" shape-rendering="crispEdges"/></g>
      <g class="overlay"><rect x="291" y="140" width="2" height="6" fill="#252525" shape-rendering="crispEdges"/></g>
      <g class="overlay"><rect x="291" y="150" width="2" height="6" fill="#252525" shape-rendering="crispEdges"/></g>
      <g class="overlay"><rect x="291" y="160" width="2" height="6" fill="#252525" shape-rendering="crispEdges"/></g>
      <g class="overlay"><rect x="291" y="170" width="2" height="6" fill="#252525" shape-rendering="crispEdges"/></g>
      <g class="overlay"><rect x="291" y="180" width="2" height="6" fill="#252525" shape-rendering="crispEdges"/></g>
      <g class="overlay"><rect x="291" y="190" width="2" height="6" fill="#252525" shape-rendering="crispEdges"/></g>
      <g class="overlay"><rect x="291" y="200" width="2" height="6" fill="#252525" shape-rendering="crispEdges"/></g>
      <g class="overlay"><rect x="291" y="210" width="2" height="6" fill="#252525" shape-rendering="crispEdges"/></g>
      <g class="overlay"><rect x="291" y="220" width="2" height="6" fill="#252525" shape-rendering="crispEdges"/></g>
      <g class="overlay"><rect x="291" y="230" width="2" height="6" fill="#252525" shape-rendering="crispEdges"/></g>
      <g class="overlay"><rect x="291" y="240" width="2" height="6" fill="#252525" shape-rendering="crispEdges"/></g>
      <g class="overlay"><rect x="291" y="250" width="2" height="6" fill="#252525" shape-rendering="crispEdges"/></g>
      <g class="overlay"><rect x="291" y="260" width="2" height="6" fill="#252525" shape-rendering="crispEdges"/></g>
      <g class="overlay"><rect x="291" y="270" width="2" height="6" fill="#252525" shape-rendering="crispEdges"/></g>
      <g class="overlay"><rect x="291" y="280" width="2" height="6" fill="#252525" shape-rendering="crispEdges"/></g>
      <g class="overlay"><rect x="291" y="290" width="2" height="6" fill="#252525" shape-rendering="crispEdges"/></g>
      <g class="overlay"><rect x="291" y="300" width="2" height="6" fill="#252525" shape-rendering="crispEdges"/></g>
      <g class="overlay"><rect x="291" y="310" width="2" height="6" fill="#252525" shape-rendering="crispEdges"/></g>
      <g class="overlay"><rect x="291" y="320" width="2" height="6" fill="#252525" shape-rendering="crispEdges"/></g>
      <g class="overlay"><rect x="291" y="330" width="2" height="6" fill="#252525" shape-rendering="crispEdges"/></g>
      <g class="overlay"><rect x="291" y="340" width="2" height="6" fill="#252525" shape-rendering="crispEdges"/></g>
      <g class="overlay"><rect x="291" y="350" width="2" height="6" fill="#252525" shape-rendering="crispEdges"/></g>
      <g class="overlay"><rect x="291" y="360" width="2" height="6" fill="#252525" shape-rendering="crispEdges"/></g>
      <g class="overlay"><rect x="291" y="370" width="2" height="6" fill="#252525" shape-rendering="crispEdges"/></g>
      <g class="overlay"><rect x="291" y="380" width="2" height="6" fill="#252525" shape-rendering="crispEdges"/></g>
      <g class="overlay"><rect x="291" y="390" width="2" height="6" fill="#252525" shape-rendering="crispEdges"/></g>
      <g class="overlay"><rect x="291" y="400" width="2" height="6" fill="#252525" shape-rendering="crispEdges"/></g>
      <g class="overlay"><rect x="291" y="410" width="2" height="6" fill="#252525" shape-rendering="crispEdges"/></g>
      <g class="overlay"><rect x="291" y="420" width="2" height="6" fill="#252525" shape-rendering="crispEdges"/></g>
      <g class="overlay"><rect x="291" y="430" width="2" height="6" fill="#252525" shape-rendering="crispEdges"/></g>
      <g class="overlay"><rect x="291" y="440" width="2" height="6" fill="#252525" shape-rendering="crispEdges"/></g>
      <g class="overlay"><rect x="291" y="450" width="2" height="6" fill="#252525" shape-rendering="crispEdges"/></g>
      <g class="overlay"><rect x="291" y="460" width="2" height="6" fill="#252525" shape-rendering="crispEdges"/></g>
      <g class="overlay"><rect x="291" y="470" width="2" height="6" fill="#252525" shape-rendering="crispEdges"/></g>
      <g class="overlay"><rect x="291" y="480" width="2" height="4" fill="#252525" shape-rendering="crispEdges"/></g>
      <g class="overlay"><rect x="388" y="0" width="2" height="6" fill="#252525" shape-rendering="crispEdges"/></g>
      <g class="overlay"><rect x="388" y="10" width="2" height="6" fill="#252525" shape-rendering="crispEdges"/></g>
      <g class="overlay"><rect x="388" y="20" width="2" height="6" fill="#252525" shape-rendering="crispEdges"/></g>
      <g class="overlay"><rect x="388" y="30" width="2" height="6" fill="#252525" shape-rendering="crispEdges"/></g>
      <g class="overlay"><rect x="388" y="40" width="2" height="6" fill="#252525" shape-rendering="crispEdges"/></g>
      <g class="overlay"><rect x="388" y="50" width="2" height="6" fill="#252525" shape-rendering="crispEdges"/></g>
      <g class="overlay"><rect x="388" y="60" width="2" height="6" fill="#252525" shape-rendering="crispEdges"/></g>
      <g class="overlay"><rect x="388" y="70" width="2" height="6" fill="#252525" shape-rendering="crispEdges"/></g>
      <g class="overlay"><rect x="388" y="80" width="2" height="6" fill="#252525" shape-rendering="crispEdges"/></g>
      <g class="overlay"><rect x="388" y="90" width="2" height="6" fill="#252525" shape-rendering="crispEdges"/></g>
      <g class="overlay"><rect x="388" y="100" width="2" height="6" fill="#252525" shape-rendering="crispEdges"/></g>
      <g class="overlay"><rect x="388" y="110" width="2" height="6" fill="#252525" shape-rendering="crispEdges"/></g>
      <g class="overlay"><rect x="388" y="120" width="2" height="6" fill="#252525" shape-rendering="crispEdges"/></g>
      <g class="overlay"><rect x="388" y="130" width="2" height="6" fill="#252525" shape-rendering="crispEdges"/></g>
      <g class="overlay"><rect x="388" y="140" width="2" height="6" fill="#252525" shape-rendering="crispEdges"/></g>
      <g class="overlay"><rect x="388" y="150" width="2" height="6" fill="#252525" shape-rendering="crispEdges"/></g>
      <g class="overlay"><rect x="388" y="160" width="2" height="6" fill="#252525" shape-rendering="crispEdges"/></g>
      <g class="overlay"><rect x="388" y="170" width="2" height="6" fill="#252525" shape-rendering="crispEdges"/></g>
      <g class="overlay"><rect x="388" y="180" width="2" height="6" fill="#252525" shape-rendering="crispEdges"/></g>
      <g class="overlay"><rect x="388" y="190" width="2" height="6" fill="#252525" shape-rendering="crispEdges"/></g>
      <g class="overlay"><rect x="388" y="200" width="2" height="6" fill="#252525" shape-rendering="crispEdges"/></g>
      <g class="overlay"><rect x="388" y="210" width="2" height="6" fill="#252525" shape-rendering="crispEdges"/></g>
      <g class="overlay"><rect x="388" y="220" width="2" height="6" fill="#252525" shape-rendering="crispEdges"/></g>
      <g class="overlay"><rect x="388" y="230" width="2" height="6" fill="#252525" shape-rendering="crispEdges"/></g>
      <g class="overlay"><rect x="388" y="240" width="2" height="6" fill="#252525" shape-rendering="crispEdges"/></g>
      <g class="overlay"><rect x="388" y="250" width="2" height="6" fill="#252525" shape-rendering="crispEdges"/></g>
      <g class="overlay"><rect x="388" y="260" width="2" height="6" fill="#252525" shape-rendering="crispEdges"/></g>
      <g class="overlay"><rect x="388" y="270" width="2" height="6" fill="#252525" shape-rendering="crispEdges"/></g>
      <g class="overlay"><rect x="388" y="280" width="2" height="6" fill="#252525" shape-rendering="crispEdges"/></g>
      <g class="overlay"><rect x="388" y="290" width="2" height="6" fill="#252525" shape-rendering="crispEdges"/></g>
      <g class="overlay"><rect x="388" y="300" width="2" height="6" fill="#252525" shape-rendering="crispEdges"/></g>
      <g class="overlay"><rect x="388" y="310" width="2" height="6" fill="#252525" shape-rendering="crispEdges"/></g>
      <g class="overlay"><rect x="388" y="320" width="2" height="6" fill="#252525" shape-rendering="crispEdges"/></g>
      <g class="overlay"><rect x="388" y="330" width="2" height="6" fill="#252525" shape-rendering="crispEdges"/></g>
      <g class="overlay"><rect x="388" y="340" width="2" height="6" fill="#252525" shape-rendering="crispEdges"/></g>
      <g class="overlay"><rect x="388" y="350" width="2" height="6" fill="#252525" shape-rendering="crispEdges"/></g>
      <g class="overlay"><rect x="388" y="360" width="2" height="6" fill="#252525" shape-rendering="crispEdges"/></g>
      <g class="overlay"><rect x="388" y="370" width="2" height="6" fill="#252525" shape-rendering="crispEdges"/></g>
      <g class="overlay"><rect x="388" y="380" width="2" height="6" fill="#252525" shape-rendering="crispEdges"/></g>
      <g class="overlay"><rect x="388" y="390" width="2" height="6" fill="#252525" shape-rendering="crispEdges"/></g>
      <g class="overlay"><rect x="388" y="400" width="2" height="6" fill="#252525" shape-rendering="crispEdges"/></g>
      <g class="overlay"><rect x="388" y="410" width="2" height="6" fill="#252525" shape-rendering="crispEdges"/></g>
      <g class="overlay"><rect x="388" y="420" width="2" height="6" fill="#252525" shape-rendering="crispEdges"/></g>
      <g class="overlay"><rect x="388" y="430" width="2" height="6" fill="#252525" shape-rendering="crispEdges"/></g>
      <g class="overlay"><rect x="388" y="440" width="2" height="6" fill="#252525" shape-rendering="crispEdges"/></g>
      <g class="overlay"><rect x="388" y="450" width="2" height="6" fill="#252525" shape-rendering="crispEdges"/></g>
      <g class="overlay"><rect x="388" y="460" width="2" height="6" fill="#252525" shape-rendering="crispEdges"/></g>
      <g class="overlay"><rect x="388" y="470" width="2" height="6" fill="#252525" shape-rendering="crispEdges"/></g>
      <g class="overlay"><rect x="388" y="480" width="2" height="4" fill="#252525" shape-rendering="crispEdges"/></g>
      <g class="overlay"><rect x="485" y="0" width="2" height="6" fill="#252525" shape-rendering="crispEdges"/></g>
      <g class="overlay"><rect x="485" y="10" width="2" height="6" fill="#252525" shape-rendering="crispEdges"/></g>
      <g class="overlay"><rect x="485" y="20" width="2" height="6" fill="#252525" shape-rendering="crispEdges"/></g>
      <g class="overlay"><rect x="485" y="30" width="2" height="6" fill="#252525" shape-rendering="crispEdges"/></g>
      <g class="overlay"><rect x="485" y="40" width="2" height="6" fill="#252525" shape-rendering="crispEdges"/></g>
      <g class="overlay"><rect x="485" y="50" width="2" height="6" fill="#252525" shape-rendering="crispEdges"/></g>
      <g class="overlay"><rect x="485" y="60" width="2" height="6" fill="#252525" shape-rendering="crispEdges"/></g>
      <g class="overlay"><rect x="485" y="70" width="2" height="6" fill="#252525" shape-rendering="crispEdges"/></g>
      <g class="overlay"><rect x="485" y="80" width="2" height="6" fill="#252525" shape-rendering="crispEdges"/></g>
      <g class="overlay"><rect x="485" y="90" width="2" height="6" fill="#252525" shape-rendering="crispEdges"/></g>
      <g class="overlay"><rect x="485" y="100" width="2" height="6" fill="#252525" shape-rendering="crispEdges"/></g>
      <g class="overlay"><rect x="485" y="110" width="2" height="6" fill="#252525" shape-rendering="crispEdges"/></g>
      <g class="overlay"><rect x="485" y="120" width="2" height="6" fill="#252525" shape-rendering="crispEdges"/></g>
      <g class="overlay"><rect x="485" y="130" width="2" height="6" fill="#252525" shape-rendering="crispEdges"/></g>
      <g class="overlay"><rect x="485" y="140" width="2" height="6" fill="#252525" shape-rendering="crispEdges"/></g>
      <g class="overlay"><rect x="485" y="150" width="2" height="6" fill="#252525" shape-rendering="crispEdges"/></g>
      <g class="overlay"><rect x="485" y="160" width="2" height="6" fill="#252525" shape-rendering="crispEdges"/></g>
      <g class="overlay"><rect x="485" y="170" width="2" height="6" fill="#252525" shape-rendering="crispEdges"/></g>
      <g class="overlay"><rect x="485" y="180" width="2" height="6" fill="#252525" shape-rendering="crispEdges"/></g>
      <g class="overlay"><rect x="485" y="190" width="2" height="6" fill="#252525" shape-rendering="crispEdges"/></g>
      <g class="overlay"><rect x="485" y="200" width="2" height="6" fill="#252525" shape-rendering="crispEdges"/></g>
      <g class="overlay"><rect x="485" y="210" width="2" height="6" fill="#252525" shape-rendering="crispEdges"/></g>
      <g class="overlay"><rect x="485" y="220" width="2" height="6" fill="#252525" shape-rendering="crispEdges"/></g>
      <g class="overlay"><rect x="485" y="230" width="2" height="6" fill="#252525" shape-rendering="crispEdges"/></g>
      <g class="overlay"><rect x="485" y="240" width="2" height="6" fill="#252525" shape-rendering="crispEdges"/></g>
      <g class="overlay"><rect x="485" y="250" width="2" height="6" fill="#252525" shape-rendering="crispEdges"/></g>
      <g class="overlay"><rect x="485" y="260" width="2" height="6" fill="#252525" shape-rendering="crispEdges"/></g>
      <g class="overlay"><rect x="485" y="270" width="2" height="6" fill="#252525" shape-rendering="crispEdges"/></g>
      <g class="overlay"><rect x="485" y="280" width="2" height="6" fill="#252525" shape-rendering="crispEdges"/></g>
      <g class="overlay"><rect x="485" y="290" width="2" height="6" fill="#252525" shape-rendering="crispEdges"/></g>
      <g class="overlay"><rect x="485" y="300" width="2" height="6" fill="#252525" shape-rendering="crispEdges"/></g>
      <g class="overlay"><rect x="485" y="310" width="2" height="6" fill="#252525" shape-rendering="crispEdges"/></g>
      <g class="overlay"><rect x="485" y="320" width="2" height="6" fill="#252525" shape-rendering="crispEdges"/></g>
      <g class="overlay"><rect x="485" y="330" width="2" height="6" fill="#252525" shape-rendering="crispEdges"/></g>
      <g class="overlay"><rect x="485" y="340" width="2" height="6" fill="#252525" shape-rendering="crispEdges"/></g>
      <g class="overlay"><rect x="485" y="350" width="2" height="6" fill="#252525" shape-rendering="crispEdges"/></g>
      <g class="overlay"><rect x="485" y="360" width="2" height="6" fill="#252525" shape-rendering="crispEdges"/></g>
      <g class="overlay"><rect x="485" y="370" width="2" height="6" fill="#252525" shape-rendering="crispEdges"/></g>
      <g class="overlay"><rect x="485" y="380" width="2" height="6" fill="#252525" shape-rendering="crispEdges"/></g>
      <g class="overlay"><rect x="485" y="390" width="2" height="6" fill="#252525" shape-rendering="crispEdges"/></g>
      <g class="overlay"><rect x="485" y="400" width="2" height="6" fill="#252525" shape-rendering="crispEdges"/></g>
      <g class="overlay"><rect x="485" y="410" width="2" height="6" fill="#252525" shape-rendering="crispEdges"/></g>
      <g class="overlay"><rect x="485" y="420" width="2" height="6" fill="#252525" shape-rendering="crispEdges"/></g>
      <g class="overlay"><rect x="485" y="430" width="2" height="6" fill="#252525" shape-rendering="crispEdges"/></g>
      <g class="overlay"><rect x="485" y="440" width="2" height="6" fill="#252525" shape-rendering="crispEdges"/></g>
      <g class="overlay"><rect x="485" y="450" width="2" height="6" fill="#252525" shape-rendering="crispEdges"/></g>
      <g class="overlay"><rect x="485" y="460" width="2" height="6" fill="#252525" shape-rendering="crispEdges"/></g>
      <g class="overlay"><rect x="485" y="470" width="2" height="6" fill="#252525" shape-rendering="crispEdges"/></g>
      <g class="overlay"><rect x="485" y="480" width="2" height="4" fill="#252525" shape-rendering="crispEdges"/></g>
      <g class="overlay"><rect x="582" y="0" width="2" height="6" fill="#252525" shape-rendering="crispEdges"/></g>
      <g class="overlay"><rect x="582" y="10" width="2" height="6" fill="#252525" shape-rendering="crispEdges"/></g>
      <g class="overlay"><rect x="582" y="20" width="2" height="6" fill="#252525" shape-rendering="crispEdges"/></g>
      <g class="overlay"><rect x="582" y="30" width="2" height="6" fill="#252525" shape-rendering="crispEdges"/></g>
      <g class="overlay"><rect x="582" y="40" width="2" height="6" fill="#252525" shape-rendering="crispEdges"/></g>
      <g class="overlay"><rect x="582" y="50" width="2" height="6" fill="#252525" shape-rendering="crispEdges"/></g>
      <g class="overlay"><rect x="582" y="60" width="2" height="6" fill="#252525" shape-rendering="crispEdges"/></g>
      <g class="overlay"><rect x="582" y="70" width="2" height="6" fill="#252525" shape-rendering="crispEdges"/></g>
      <g class="overlay"><rect x="582" y="80" width="2" height="6" fill="#252525" shape-rendering="crispEdges"/></g>
      <g class="overlay"><rect x="582" y="90" width="2" height="6" fill="#252525" shape-rendering="crispEdges"/></g>
      <g class="overlay"><rect x="582" y="100" width="2" height="6" fill="#252525" shape-rendering="crispEdges"/></g>
      <g class="overlay"><rect x="582" y="110" width="2" height="6" fill="#252525" shape-rendering="crispEdges"/></g>
      <g class="overlay"><rect x="582" y="120" width="2" height="6" fill="#252525" shape-rendering="crispEdges"/></g>
      <g class="overlay"><rect x="582" y="130" width="2" height="6" fill="#252525" shape-rendering="crispEdges"/></g>
      <g class="overlay"><rect x="582" y="140" width="2" height="6" fill="#252525" shape-rendering="crispEdges"/></g>
      <g class="overlay"><rect x="582" y="150" width="2" height="6" fill="#252525" shape-rendering="crispEdges"/></g>
      <g class="overlay"><rect x="582" y="160" width="2" height="6" fill="#252525" shape-rendering="crispEdges"/></g>
      <g class="overlay"><rect x="582" y="170" width="2" height="6" fill="#252525" shape-rendering="crispEdges"/></g>
      <g class="overlay"><rect x="582" y="180" width="2" height="6" fill="#252525" shape-rendering="crispEdges"/></g>
      <g class="overlay"><rect x="582" y="190" width="2" height="6" fill="#252525" shape-rendering="crispEdges"/></g>
      <g class="overlay"><rect x="582" y="200" width="2" height="6" fill="#252525" shape-rendering="crispEdges"/></g>
      <g class="overlay"><rect x="582" y="210" width="2" height="6" fill="#252525" shape-rendering="crispEdges"/></g>
      <g class="overlay"><rect x="582" y="220" width="2" height="6" fill="#252525" shape-rendering="crispEdges"/></g>
      <g class="overlay"><rect x="582" y="230" width="2" height="6" fill="#252525" shape-rendering="crispEdges"/></g>
      <g class="overlay"><rect x="582" y="240" width="2" height="6" fill="#252525" shape-rendering="crispEdges"/></g>
      <g class="overlay"><rect x="582" y="250" width="2" height="6" fill="#252525" shape-rendering="crispEdges"/></g>
      <g class="overlay"><rect x="582" y="260" width="2" height="6" fill="#252525" shape-rendering="crispEdges"/></g>
      <g class="overlay"><rect x="582" y="270" width="2" height="6" fill="#252525" shape-rendering="crispEdges"/></g>
      <g class="overlay"><rect x="582" y="280" width="2" height="6" fill="#252525" shape-rendering="crispEdges"/></g>
      <g class="overlay"><rect x="582" y="290" width="2" height="6" fill="#252525" shape-rendering="crispEdges"/></g>
      <g class="overlay"><rect x="582" y="300" width="2" height="6" fill="#252525" shape-rendering="crispEdges"/></g>
      <g class="overlay"><rect x="582" y="310" width="2" height="6" fill="#252525" shape-rendering="crispEdges"/></g>
      <g class="overlay"><rect x="582" y="320" width="2" height="6" fill="#252525" shape-rendering="crispEdges"/></g>
      <g class="overlay"><rect x="582" y="330" width="2" height="6" fill="#252525" shape-rendering="crispEdges"/></g>
      <g class="overlay"><rect x="582" y="340" width="2" height="6" fill="#252525" shape-rendering="crispEdges"/></g>
      <g class="overlay"><rect x="582" y="350" width="2" height="6" fill="#252525" shape-rendering="crispEdges"/></g>
      <g class="overlay"><rect x="582" y="360" width="2" height="6" fill="#252525" shape-rendering="crispEdges"/></g>
      <g class="overlay"><rect x="582" y="370" width="2" height="6" fill="#252525" shape-rendering="crispEdges"/></g>
      <g class="overlay"><rect x="582" y="380" width="2" height="6" fill="#252525" shape-rendering="crispEdges"/></g>
      <g class="overlay"><rect x="582" y="390" width="2" height="6" fill="#252525" shape-rendering="crispEdges"/></g>
      <g class="overlay"><rect x="582" y="400" width="2" height="6" fill="#252525" shape-rendering="crispEdges"/></g>
      <g class="overlay"><rect x="582" y="410" width="2" height="6" fill="#252525" shape-rendering="crispEdges"/></g>
      <g class="overlay"><rect x="582" y="420" width="2" height="6" fill="#252525" shape-rendering="crispEdges"/></g>
      <g class="overlay"><rect x="582" y="430" width="2" height="6" fill="#252525" shape-rendering="crispEdges"/></g>
      <g class="overlay"><rect x="582" y="440" width="2" height="6" fill="#252525" shape-rendering="crispEdges"/></g>
      <g class="overlay"><rect x="582" y="450" width="2" height="6" fill="#252525" shape-rendering="crispEdges"/></g>
      <g class="overlay"><rect x="582" y="460" width="2" height="6" fill="#252525" shape-rendering="crispEdges"/></g>
      <g class="overlay"><rect x="582" y="470" width="2" height="6" fill="#252525" shape-rendering="crispEdges"/></g>
      <g class="overlay"><rect x="582" y="480" width="2" height="4" fill="#252525" shape-rendering="crispEdges"/></g>
      <g class="overlay"><rect x="679" y="0" width="2" height="6" fill="#252525" shape-rendering="crispEdges"/></g>
      <g class="overlay"><rect x="679" y="10" width="2" height="6" fill="#252525" shape-rendering="crispEdges"/></g>
      <g class="overlay"><rect x="679" y="20" width="2" height="6" fill="#252525" shape-rendering="crispEdges"/></g>
      <g class="overlay"><rect x="679" y="30" width="2" height="6" fill="#252525" shape-rendering="crispEdges"/></g>
      <g class="overlay"><rect x="679" y="40" width="2" height="6" fill="#252525" shape-rendering="crispEdges"/></g>
      <g class="overlay"><rect x="679" y="50" width="2" height="6" fill="#252525" shape-rendering="crispEdges"/></g>
      <g class="overlay"><rect x="679" y="60" width="2" height="6" fill="#252525" shape-rendering="crispEdges"/></g>
      <g class="overlay"><rect x="679" y="70" width="2" height="6" fill="#252525" shape-rendering="crispEdges"/></g>
      <g class="overlay"><rect x="679" y="80" width="2" height="6" fill="#252525" shape-rendering="crispEdges"/></g>
      <g class="overlay"><rect x="679" y="90" width="2" height="6" fill="#252525" shape-rendering="crispEdges"/></g>
      <g class="overlay"><rect x="679" y="100" width="2" height="6" fill="#252525" shape-rendering="crispEdges"/></g>
      <g class="overlay"><rect x="679" y="110" width="2" height="6" fill="#252525" shape-rendering="crispEdges"/></g>
      <g class="overlay"><rect x="679" y="120" width="2" height="6" fill="#252525" shape-rendering="crispEdges"/></g>
      <g class="overlay"><rect x="679" y="130" width="2" height="6" fill="#252525" shape-rendering="crispEdges"/></g>
      <g class="overlay"><rect x="679" y="140" width="2" height="6" fill="#252525" shape-rendering="crispEdges"/></g>
      <g class="overlay"><rect x="679" y="150" width="2" height="6" fill="#252525" shape-rendering="crispEdges"/></g>
      <g class="overlay"><rect x="679" y="160" width="2" height="6" fill="#252525" shape-rendering="crispEdges"/></g>
      <g class="overlay"><rect x="679" y="170" width="2" height="6" fill="#252525" shape-rendering="crispEdges"/></g>
      <g class="overlay"><rect x="679" y="180" width="2" height="6" fill="#252525" shape-rendering="crispEdges"/></g>
      <g class="overlay"><rect x="679" y="190" width="2" height="6" fill="#252525" shape-rendering="crispEdges"/></g>
      <g class="overlay"><rect x="679" y="200" width="2" height="6" fill="#252525" shape-rendering="crispEdges"/></g>
      <g class="overlay"><rect x="679" y="210" width="2" height="6" fill="#252525" shape-rendering="crispEdges"/></g>
      <g class="overlay"><rect x="679" y="220" width="2" height="6" fill="#252525" shape-rendering="crispEdges"/></g>
      <g class="overlay"><rect x="679" y="230" width="2" height="6" fill="#252525" shape-rendering="crispEdges"/></g>
      <g class="overlay"><rect x="679" y="240" width="2" height="6" fill="#252525" shape-rendering="crispEdges"/></g>
      <g class="overlay"><rect x="679" y="250" width="2" height="6" fill="#252525" shape-rendering="crispEdges"/></g>
      <g class="overlay"><rect x="679" y="260" width="2" height="6" fill="#252525" shape-rendering="crispEdges"/></g>
      <g class="overlay"><rect x="679" y="270" width="2" height="6" fill="#252525" shape-rendering="crispEdges"/></g>
      <g class="overlay"><rect x="679" y="280" width="2" height="6" fill="#252525" shape-rendering="crispEdges"/></g>
      <g class="overlay"><rect x="679" y="290" width="2" height="6" fill="#252525" shape-rendering="crispEdges"/></g>
      <g class="overlay"><rect x="679" y="300" width="2" height="6" fill="#252525" shape-rendering="crispEdges"/></g>
      <g class="overlay"><rect x="679" y="310" width="2" height="6" fill="#252525" shape-rendering="crispEdges"/></g>
      <g class="overlay"><rect x="679" y="320" width="2" height="6" fill="#252525" shape-rendering="crispEdges"/></g>
      <g class="overlay"><rect x="679" y="330" width="2" height="6" fill="#252525" shape-rendering="crispEdges"/></g>
      <g class="overlay"><rect x="679" y="340" width="2" height="6" fill="#252525" shape-rendering="crispEdges"/></g>
      <g class="overlay"><rect x="679" y="350" width="2" height="6" fill="#252525" shape-rendering="crispEdges"/></g>
      <g class="overlay"><rect x="679" y="360" width="2" height="6" fill="#252525" shape-rendering="crispEdges"/></g>
      <g class="overlay"><rect x="679" y="370" width="2" height="6" fill="#252525" shape-rendering="crispEdges"/></g>
      <g class="overlay"><rect x="679" y="380" width="2" height="6" fill="#252525" shape-rendering="crispEdges"/></g>
      <g class="overlay"><rect x="679" y="390" width="2" height="6" fill="#252525" shape-rendering="crispEdges"/></g>
      <g class="overlay"><rect x="679" y="400" width="2" height="6" fill="#252525" shape-rendering="crispEdges"/></g>
      <g class="overlay"><rect x="679" y="410" width="2" height="6" fill="#252525" shape-rendering="crispEdges"/></g>
      <g class="overlay"><rect x="679" y="420" width="2" height="6" fill="#252525" shape-rendering="crispEdges"/></g>
      <g class="overlay"><rect x="679" y="430" width="2" height="6" fill="#252525" shape-rendering="crispEdges"/></g>
      <g class="overlay"><rect x="679" y="440" width="2" height="6" fill="#252525" shape-rendering="crispEdges"/></g>
      <g class="overlay"><rect x="679" y="450" width="2" height="6" fill="#252525" shape-rendering="crispEdges"/></g>
      <g class="overlay"><rect x="679" y="460" width="2" height="6" fill="#252525" shape-rendering="crispEdges"/></g>
      <g class="overlay"><rect x="679" y="470" width="2" height="6" fill="#252525" shape-rendering="crispEdges"/></g>
      <g class="overlay"><rect x="679" y="480" width="2" height="4" fill="#252525" shape-rendering="crispEdges"/></g>
    </g>
    <rect x="0" y="0" width="645.2" height="356" fill="#191919" rx="0" ry="0"/>
    <g class="title-bar">
      <rect x="0" y="29" width="645.2" height="1" fill="#1a1a1a" shape-rendering="crispEdges"/>
    <circle cx="16" cy="14.5" r="4" fill="#ffffff33"/>
    <circle cx="32" cy="14.5" r="4" fill="#ffffff33"/>
    <circle cx="48" cy="14.5" r="4" fill="#ffffff33"/>
    <text x="322.6" y="19.17" fill="#FFFFFF" font-family="'Space Mono', monospace" font-size="12" text-anchor="middle" opacity="0.8">browserbase</text>
    </g>
    <path d="M 0 0 L 645.2 0 L 645.2 1 L 0 1 Z M 0 355 L 645.2 355 L 645.2 356 L 0 356 Z M 0 1 L 1 1 L 1 355 L 0 355 Z M 644.2 1 L 645.2 1 L 645.2 355 L 644.2 355 Z" fill="#222222" fill-rule="nonzero" shape-rendering="crispEdges"/>
    <g class="text">
      <text x="24.4" y="60" font-family="'Space Mono', monospace" font-size="14" fill="#FFFFFF66" text-anchor="end" xml:space="preserve">1</text>
      <text y="60" font-family="'Space Mono', monospace" font-size="14" xml:space="preserve"><tspan x="32.8" fill="#FF4500">import</tspan><tspan x="83.2" fill="#FFFFFF"> { useState, useEffect } </tspan><tspan x="293.2" fill="#FF4500">from</tspan><tspan x="326.8" fill="#FFFFFF"> </tspan><tspan x="335.2" fill="#FFB800">&#39;react&#39;</tspan><tspan x="394" fill="#FFFFFF">;</tspan></text>
      <text x="24.4" y="79.6" font-family="'Space Mono', monospace" font-size="14" fill="#FFFFFF66" text-anchor="end" xml:space="preserve">2</text>
      <text y="79.6" font-family="'Space Mono', monospace" font-size="14" xml:space="preserve"><tspan x="32.8" fill="#FF4500">import</tspan><tspan x="83.2" fill="#FFFFFF"> { createConnection } </tspan><tspan x="268" fill="#FF4500">from</tspan><tspan x="301.6" fill="#FFFFFF"> </tspan><tspan x="310" fill="#FFB800">&#39;./chat.js&#39;</tspan><tspan x="402.4" fill="#FFFFFF">;</tspan></text>
      <text x="24.4" y="99.2" font-family="'Space Mono', monospace" font-size="14" fill="#FFFFFF66" text-anchor="end" xml:space="preserve">3</text>
      <text x="24.4" y="118.8" font-family="'Space Mono', monospace" font-size="14" fill="#FFFFFF66" text-anchor="end" xml:space="preserve">4</text>
      <text y="118.8" font-family="'Space Mono', monospace" font-size="14" xml:space="preserve"><tspan x="32.8" fill="#FF4500">function</tspan><tspan x="100" fill="#FFFFFF"> </tspan><tspan x="108.4" fill="#FFFFFF">ChatRoom</tspan><tspan x="175.6" fill="#FFFFFF">({ roomId }) {</tspan></text>
      <text x="24.4" y="138.4" font-family="'Space Mono', monospace" font-size="14" fill="#FFFFFF66" text-anchor="end" xml:space="preserve">5</text>
      <text y="138.4" font-family="'Space Mono', monospace" font-size="14" xml:space="preserve"><tspan x="32.8" fill="#FFFFFF">  </tspan><tspan x="49.6" fill="#FF4500">const</tspan><tspan x="91.6" fill="#FFFFFF"> [serverUrl, setServerUrl] </tspan><tspan x="318.4" fill="#FF6B35">=</tspan><tspan x="326.8" fill="#FFFFFF"> </tspan><tspan x="335.2" fill="#FFFFFF">useState</tspan><tspan x="402.4" fill="#FFFFFF">(</tspan><tspan x="410.8" fill="#FFB800">&#39;https://localhost:1234&#39;</tspan><tspan x="612.4" fill="#FFFFFF">);</tspan></text>
      <text x="24.4" y="158" font-family="'Space Mono', monospace" font-size="14" fill="#FFFFFF66" text-anchor="end" xml:space="preserve">6</text>
      <text x="24.4" y="177.6" font-family="'Space Mono', monospace" font-size="14" fill="#FFFFFF66" text-anchor="end" xml:space="preserve">7</text>
      <text y="177.6" font-family="'Space Mono', monospace" font-size="14" xml:space="preserve"><tspan x="32.8" fill="#FFFFFF">  </tspan><tspan x="49.6" fill="#FFFFFF">useEffect</tspan><tspan x="125.2" fill="#FFFFFF">(() </tspan><tspan x="158.8" fill="#FF4500">=&gt;</tspan><tspan x="175.6" fill="#FFFFFF"> {</tspan></text>
      <text x="24.4" y="197.2" font-family="'Space Mono', monospace" font-size="14" fill="#FFFFFF66" text-anchor="end" xml:space="preserve">8</text>
      <text y="197.2" font-family="'Space Mono', monospace" font-size="14" xml:space="preserve"><tspan x="32.8" fill="#FFFFFF">    </tspan><tspan x="66.4" fill="#FF4500">const</tspan><tspan x="108.4" fill="#FFFFFF"> connection </tspan><tspan x="209.2" fill="#FF6B35">=</tspan><tspan x="217.6" fill="#FFFFFF"> </tspan><tspan x="226" fill="#FFFFFF">createConnection</tspan><tspan x="360.4" fill="#FFFFFF">(serverUrl, roomId);</tspan></text>
      <text x="24.4" y="216.8" font-family="'Space Mono', monospace" font-size="14" fill="#FFFFFF66" text-anchor="end" xml:space="preserve">9</text>
      <text y="216.8" font-family="'Space Mono', monospace" font-size="14" xml:space="preserve"><tspan x="32.8" fill="#FFFFFF">    connection.</tspan><tspan x="158.8" fill="#FFFFFF">connect</tspan><tspan x="217.6" fill="#FFFFFF">();</tspan></text>
      <text x="24.4" y="236.4" font-family="'Space Mono', monospace" font-size="14" fill="#FFFFFF66" text-anchor="end" xml:space="preserve">10</text>
      <text y="236.4" font-family="'Space Mono', monospace" font-size="14" xml:space="preserve"><tspan x="32.8" fill="#FFFFFF">    </tspan><tspan x="66.4" fill="#FF4500">return</tspan><tspan x="116.8" fill="#FFFFFF"> () </tspan><tspan x="150.4" fill="#FF4500">=&gt;</tspan><tspan x="167.2" fill="#FFFFFF"> {</tspan></text>
      <text x="24.4" y="256" font-family="'Space Mono', monospace" font-size="14" fill="#FFFFFF66" text-anchor="end" xml:space="preserve">11</text>
      <text y="256" font-family="'Space Mono', monospace" font-size="14" xml:space="preserve"><tspan x="32.8" fill="#FFFFFF">      connection.</tspan><tspan x="175.6" fill="#FFFFFF">disconnect</tspan><tspan x="259.6" fill="#FFFFFF">();</tspan></text>
      <text x="24.4" y="275.6" font-family="'Space Mono', monospace" font-size="14" fill="#FFFFFF66" text-anchor="end" xml:space="preserve">12</text>
      <text y="275.6" font-family="'Space Mono', monospace" font-size="14" xml:space="preserve"><tspan x="32.8" fill="#FFFFFF">    };</tspan></text>
      <text x="24.4" y="295.2" font-family="'Space Mono', monospace" font-size="14" fill="#FFFFFF66" text-anchor="end" xml:space="preserve">13</text>
      <text y="295.2" font-family="'Space Mono', monospace" font-size="14" xml:space="preserve"><tspan x="32.8" fill="#FFFFFF">  }, [serverUrl, roomId]);</tspan></text>
      <text x="24.4" y="314.8" font-family="'Space Mono', monospace" font-size="14" fill="#FFFFFF66" text-anchor="end" xml:space="preserve">14</text>
      <text y="314.8" font-family="'Space Mono', monospace" font-size="14" xml:space="preserve"><tspan x="32.8" fill="#FFFFFF">  </tspan><tspan x="49.6" fill="#6B7280">// ...</tspan></text>
      <text x="24.4" y="334.4" font-family="'Space Mono', monospace" font-size="14" fill="#FFFFFF66" text-anchor="end" xml:space="preserve">15</text>
      <text y="334.4" font-family="'Space Mono', monospace" font-size="14" xml:space="preserve"><tspan x="32.8" fill="#FFFFFF">}</tspan></text>
    </g>
  </g>
</svg>