<svg xmlns="http://www.w3.org/2000/svg" viewBox="0 0 403.6 288" width="403.6" height="288">
  <rect x="0" y="0" width="403.6" height="288" fill="#0d0d0d" rx="0" ry="0"/>
  <g class="overlay"><rect x="50" y="0" width="2" height="6" fill="#252525" shape-rendering="crispEdges"/></g>
  <g class="overlay"><rect x="50" y="10" width="2" height="6" fill="#252525" shape-rendering="crispEdges"/></g>
  <g class="overlay"><rect x="50" y="20" width="2" height="6" fill="#252525" shape-rendering="crispEdges"/></g>
  <g class="overlay"><rect x="50" y="30" width="2" height="6" fill="#252525" shape-rendering="crispEdges"/></g>
  <g class="overlay"><rect x="50" y="40" width="2" height="6" fill="#252525" shape-rendering="crispEdges"/></g>
  <g class="overlay"><rect x="50" y="50" width="2" height="6" fill="#252525" shape-rendering="crispEdges"/></g>
  <g class="overlay"><rect x="50" y="60" width="2" height="6" fill="#252525" shape-rendering="crispEdges"/></g>
  <g class="overlay"><rect x="50" y="70" width="2" height="6" fill="#252525" shape-rendering="crispEdges"/></g>
  <g class="overlay"><rect x="50" y="80" width="2" height="6" fill="#252525" shape-rendering="crispEdges"/></g>
  <g class="overlay"><rect x="50" y="90" width="2" height="6" fill="#252525" shape-rendering="crispEdges"/></g>
  <g class="overlay"><rect x="50" y="100" width="2" height="6" fill="#252525" shape-rendering="crispEdges"/></g>
  <g class="overlay"><rect x="50" y="110" width="2" height="6" fill="#252525" shape-rendering="crispEdges"/></g>
  <g class="overlay"><rect x="50" y="120" width="2" height="6" fill="#252525" shape-rendering="crispEdges"/></g>
  <g class="overlay"><rect x="50" y="130" width="2" height="6" fill="#252525" shape-rendering="crispEdges"/></g>
  <g class="overlay"><rect x="50" y="140" width="2" height="6" fill="#252525" shape-rendering="crispEdges"/></g>
  <g class="overlay"><rect x="50" y="150" width="2" height="6" fill="#252525" shape-rendering="crispEdges"/></g>
  <g class="overlay"><rect x="50" y="160" width="2" height="6" fill="#252525" shape-rendering="crispEdges"/></g>
  <g class="overlay"><rect x="50" y="170" width="2" height="6" fill="#252525" shape-rendering="crispEdges"/></g>
  <g class="overlay"><rect x="50" y="180" width="2" height="6" fill="#252525" shape-rendering="crispEdges"/></g>
  <g class="overlay"><rect x="50" y="190" width="2" height="6" fill="#252525" shape-rendering="crispEdges"/></g>
  <g class="overlay"><rect x="50" y="200" width="2" height="6" fill="#252525" shape-rendering="crispEdges"/></g>
  <g class="overlay"><rect x="50" y="210" width="2" height="6" fill="#252525" shape-rendering="crispEdges"/></g>
  <g class="overlay"><rect x="50" y="220" width="2" height="6" fill="#252525" shape-rendering="crispEdges"/></g>
  <g class="overlay"><rect x="50" y="230" width="2" height="6" fill="#252525" shape-rendering="crispEdges"/></g>
  <g class="overlay"><rect x="50" y="240" width="2" height="6" fill="#252525" shape-rendering="crispEdges"/></g>
  <g class="overlay"><rect x="50" y="250" width="2" height="6" fill="#252525" shape-rendering="crispEdges"/></g>
  <g class="overlay"><rect x="50" y="260" width="2" height="6" fill="#252525" shape-rendering="crispEdges"/></g>
  <g class="overlay"><rect x="50" y="270" width="2" height="6" fill="#252525" shape-rendering="crispEdges"/></g>
  <g class="overlay"><rect x="50" y="280" width="2" height="6" fill="#252525" shape-rendering="crispEdges"/></g>
  <g class="overlay"><rect x="100" y="0" width="2" height="6" fill="#252525" shape-rendering="crispEdges"/></g>
  <g class="overlay"><rect x="100" y="10" width="2" height="6" fill="#252525" shape-rendering="crispEdges"/></g>
  <g class="overlay"><rect x="100" y="20" width="2" height="6" fill="#252525" shape-rendering="crispEdges"/></g>
  <g class="overlay"><rect x="100" y="30" width="2" height="6" fill="#252525" shape-rendering="crispEdges"/></g>
  <g class="overlay"><rect x="100" y="40" width="2" height="6" fill="#252525" shape-rendering="crispEdges"/></g>
  <g class="overlay"><rect x="100" y="50" width="2" height="6" fill="#252525" shape-rendering="crispEdges"/></g>
  <g class="overlay"><rect x="100" y="60" width="2" height="6" fill="#252525" shape-rendering="crispEdges"/></g>
  <g class="overlay"><rect x="100" y="70" width="2" height="6" fill="#252525" shape-rendering="crispEdges"/></g>
  <g class="overlay"><rect x="100" y="80" width="2" height="6" fill="#252525" shape-rendering="crispEdges"/></g>
  <g class="overlay"><rect x="100" y="90" width="2" height="6" fill="#252525" shape-rendering="crispEdges"/></g>
  <g class="overlay"><rect x="100" y="100" width="2" height="6" fill="#252525" shape-rendering="crispEdges"/></g>
  <g class="overlay"><rect x="100" y="110" width="2" height="6" fill="#252525" shape-rendering="crispEdges"/></g>
  <g class="overlay"><rect x="100" y="120" width="2" height="6" fill="#252525" shape-rendering="crispEdges"/></g>
  <g class="overlay"><rect x="100" y="130" width="2" height="6" fill="#252525" shape-rendering="crispEdges"/></g>
  <g class="overlay"><rect x="100" y="140" width="2" height="6" fill="#252525" shape-rendering="crispEdges"/></g>
  <g class="overlay"><rect x="100" y="150" width="2" height="6" fill="#252525" shape-rendering="crispEdges"/></g>
  <g class="overlay"><rect x="100" y="160" width="2" height="6" fill="#252525" shape-rendering="crispEdges"/></g>
  <g class="overlay"><rect x="100" y="170" width="2" height="6" fill="#252525" shape-rendering="crispEdges"/></g>
  <g class="overlay"><rect x="100" y="180" width="2" height="6" fill="#252525" shape-rendering="crispEdges"/></g>
  <g class="overlay"><rect x="100" y="190" width="2" height="6" fill="#252525" shape-rendering="crispEdges"/></g>
  <g class="overlay"><rect x="100" y="200" width="2" height="6" fill="#252525" shape-rendering="crispEdges"/></g>
  <g class="overlay"><rect x="100" y="210" width="2" height="6" fill="#252525" shape-rendering="crispEdges"/></g>
  <g class="overlay"><rect x="100" y="220" width="2" height="6" fill="#252525" shape-rendering="crispEdges"/></g>
  <g class="overlay"><rect x="100" y="230" width="2" height="6" fill="#252525" shape-rendering="crispEdges"/></g>
  <g class="overlay"><rect x="100" y="240" width="2" height="6" fill="#252525" shape-rendering="crispEdges"/></g>
  <g class="overlay"><rect x="100" y="250" width="2" height="6" fill="#252525" shape-rendering="crispEdges"/></g>
  <g class="overlay"><rect x="100" y="260" width="2" height="6" fill="#252525" shape-rendering="crispEdges"/></g>
  <g class="overlay"><rect x="100" y="270" width="2" height="6" fill="#252525" shape-rendering="crispEdges"/></g>
  <g class="overlay"><rect x="100" y="280" width="2" height="6" fill="#252525" shape-rendering="crispEdges"/></g>
  <g class="overlay"><rect x="150" y="0" width="2" height="6" fill="#252525" shape-rendering="crispEdges"/></g>
  <g class="overlay"><rect x="150" y="10" width="2" height="6" fill="#252525" shape-rendering="crispEdges"/></g>
  <g class="overlay"><rect x="150" y="20" width="2" height="6" fill="#252525" shape-rendering="crispEdges"/></g>
  <g class="overlay"><rect x="150" y="30" width="2" height="6" fill="#252525" shape-rendering="crispEdges"/></g>
  <g class="overlay"><rect x="150" y="40" width="2" height="6" fill="#252525" shape-rendering="crispEdges"/></g>
  <g class="overlay"><rect x="150" y="50" width="2" height="6" fill="#252525" shape-rendering="crispEdges"/></g>
  <g class="overlay"><rect x="150" y="60" width="2" height="6" fill="#252525" shape-rendering="crispEdges"/></g>
  <g class="overlay"><rect x="150" y="70" width="2" height="6" fill="#252525" shape-rendering="crispEdges"/></g>
  <g class="overlay"><rect x="150" y="80" width="2" height="6" fill="#252525" shape-rendering="crispEdges"/></g>
  <g class="overlay"><rect x="150" y="90" width="2" height="6" fill="#252525" shape-rendering="crispEdges"/></g>
  <g class="overlay"><rect x="150" y="100" width="2" height="6" fill="#252525" shape-rendering="crispEdges"/></g>
  <g class="overlay"><rect x="150" y="110" width="2" height="6" fill="#252525" shape-rendering="crispEdges"/></g>
  <g class="overlay"><rect x="150" y="120" width="2" height="6" fill="#252525" shape-rendering="crispEdges"/></g>
  <g class="overlay"><rect x="150" y="130" width="2" height="6" fill="#252525" shape-rendering="crispEdges"/></g>
  <g class="overlay"><rect x="150" y="140" width="2" height="6" fill="#252525" shape-rendering="crispEdges"/></g>
  <g class="overlay"><rect x="150" y="150" width="2" height="6" fill="#252525" shape-rendering="crispEdges"/></g>
  <g class="overlay"><rect x="150" y="160" width="2" height="6" fill="#252525" shape-rendering="crispEdges"/></g>
  <g class="overlay"><rect x="150" y="170" width="2" height="6" fill="#252525" shape-rendering="crispEdges"/></g>
  <g class="overlay"><rect x="150" y="180" width="2" height="6" fill="#252525" shape-rendering="crispEdges"/></g>
  <g class="overlay"><rect x="150" y="190" width="2" height="6" fill="#252525" shape-rendering="crispEdges"/></g>
  <g class="overlay"><rect x="150" y="200" width="2" height="6" fill="#252525" shape-rendering="crispEdges"/></g>
  <g class="overlay"><rect x="150" y="210" width="2" height="6" fill="#252525" shape-rendering="crispEdges"/></g>
  <g class="overlay"><rect x="150" y="220" width="2" height="6" fill="#252525" shape-rendering="crispEdges"/></g>
  <g class="overlay"><rect x="150" y="230" width="2" height="6" fill="#252525" shape-rendering="crispEdges"/></g>
  <g class="overlay"><rect x="150" y="240" width="2" height="6" fill="#252525" shape-rendering="crispEdges"/></g>
  <g class="overlay"><rect x="150" y="250" width="2" height="6" fill="#252525" shape-rendering="crispEdges"/></g>
  <g class="overlay"><rect x="150" y="260" width="2" height="6" fill="#252525" shape-rendering="crispEdges"/></g>
  <g class="overlay"><rect x="150" y="270" width="2" height="6" fill="#252525" shape-rendering="crispEdges"/></g>
  <g class="overlay"><rect x="150" y="280" width="2" height="6" fill="#252525" shape-rendering="crispEdges"/></g>
  <g class="overlay"><rect x="200" y="0" width="2" height="6" fill="#252525" shape-rendering="crispEdges"/></g>
  <g class="overlay"><rect x="200" y="10" width="2" height="6" fill="#252525" shape-rendering="crispEdges"/></g>
  <g class="overlay"><rect x="200" y="20" width="2" height="6" fill="#252525" shape-rendering="crispEdges"/></g>
  <g class="overlay"><rect x="200" y="30" width="2" height="6" fill="#252525" shape-rendering="crispEdges"/></g>
  <g class="overlay"><rect x="200" y="40" width="2" height="6" fill="#252525" shape-rendering="crispEdges"/></g>
  <g class="overlay"><rect x="200" y="50" width="2" height="6" fill="#252525" shape-rendering="crispEdges"/></g>
  <g class="overlay"><rect x="200" y="60" width="2" height="6" fill="#252525" shape-rendering="crispEdges"/></g>
  <g class="overlay"><rect x="200" y="70" width="2" height="6" fill="#252525" shape-rendering="crispEdges"/></g>
  <g class="overlay"><rect x="200" y="80" width="2" height="6" fill="#252525" shape-rendering="crispEdges"/></g>
  <g class="overlay"><rect x="200" y="90" width="2" height="6" fill="#252525" shape-rendering="crispEdges"/></g>
  <g class="overlay"><rect x="200" y="100" width="2" height="6" fill="#252525" shape-rendering="crispEdges"/></g>
  <g class="overlay"><rect x="200" y="110" width="2" height="6" fill="#252525" shape-rendering="crispEdges"/></g>
  <g class="overlay"><rect x="200" y="120" width="2" height="6" fill="#252525" shape-rendering="crispEdges"/></g>
  <g class="overlay"><rect x="200" y="130" width="2" height="6" fill="#252525" shape-rendering="crispEdges"/></g>
  <g class="overlay"><rect x="200" y="140" width="2" height="6" fill="#252525" shape-rendering="crispEdges"/></g>
  <g class="overlay"><rect x="200" y="150" width="2" height="6" fill="#252525" shape-rendering="crispEdges"/></g>
  <g class="overlay"><rect x="200" y="160" width="2" height="6" fill="#252525" shape-rendering="crispEdges"/></g>
  <g class="overlay"><rect x="200" y="170" width="2" height="6" fill="#252525" shape-rendering="crispEdges"/></g>
  <g class="overlay"><rect x="200" y="180" width="2" height="6" fill="#252525" shape-rendering="crispEdges"/></g>
  <g class="overlay"><rect x="200" y="190" width="2" height="6" fill="#252525" shape-rendering="crispEdges"/></g>
  <g class="overlay"><rect x="200" y="200" width="2" height="6" fill="#252525" shape-rendering="crispEdges"/></g>
  <g class="overlay"><rect x="200" y="210" width="2" height="6" fill="#252525" shape-rendering="crispEdges"/></g>
  <g class="overlay"><rect x="200" y="220" width="2" height="6" fill="#252525" shape-rendering="crispEdges"/></g>
  <g class="overlay"><rect x="200" y="230" width="2" height="6" fill="#252525" shape-rendering="crispEdges"/></g>
  <g class="overlay"><rect x="200" y="240" width="2" height="6" fill="#252525" shape-rendering="crispEdges"/></g>
  <g class="overlay"><rect x="200" y="250" width="2" height="6" fill="#252525" shape-rendering="crispEdges"/></g>
  <g class="overlay"><rect x="200" y="260" width="2" height="6" fill="#252525" shape-rendering="crispEdges"/></g>
  <g class="overlay"><rect x="200" y="270" width="2" height="6" fill="#252525" shape-rendering="crispEdges"/></g>
  <g class="overlay"><rect x="200" y="280" width="2" height="6" fill="#252525" shape-rendering="crispEdges"/></g>
  <g class="overlay"><rect x="250" y="0" width="2" height="6" fill="#252525" shape-rendering="crispEdges"/></g>
  <g class="overlay"><rect x="250" y="10" width="2" height="6" fill="#252525" shape-rendering="crispEdges"/></g>
  <g class="overlay"><rect x="250" y="20" width="2" height="6" fill="#252525" shape-rendering="crispEdges"/></g>
  <g class="overlay"><rect x="250" y="30" width="2" height="6" fill="#252525" shape-rendering="crispEdges"/></g>
  <g class="overlay"><rect x="250" y="40" width="2" height="6" fill="#252525" shape-rendering="crispEdges"/></g>
  <g class="overlay"><rect x="250" y="50" width="2" height="6" fill="#252525" shape-rendering="crispEdges"/></g>
  <g class="overlay"><rect x="250" y="60" width="2" height="6" fill="#252525" shape-rendering="crispEdges"/></g>
  <g class="overlay"><rect x="250" y="70" width="2" height="6" fill="#252525" shape-rendering="crispEdges"/></g>
  <g class="overlay"><rect x="250" y="80" width="2" height="6" fill="#252525" shape-rendering="crispEdges"/></g>
  <g class="overlay"><rect x="250" y="90" width="2" height="6" fill="#252525" shape-rendering="crispEdges"/></g>
  <g class="overlay"><rect x="250" y="100" width="2" height="6" fill="#252525" shape-rendering="crispEdges"/></g>
  <g class="overlay"><rect x="250" y="110" width="2" height="6" fill="#252525" shape-rendering="crispEdges"/></g>
  <g class="overlay"><rect x="250" y="120" width="2" height="6" fill="#252525" shape-rendering="crispEdges"/></g>
  <g class="overlay"><rect x="250" y="130" width="2" height="6" fill="#252525" shape-rendering="crispEdges"/></g>
  <g class="overlay"><rect x="250" y="140" width="2" height="6" fill="#252525" shape-rendering="crispEdges"/></g>
  <g class="overlay"><rect x="250" y="150" width="2" height="6" fill="#252525" shape-rendering="crispEdges"/></g>
  <g class="overlay"><rect x="250" y="160" width="2" height="6" fill="#252525" shape-rendering="crispEdges"/></g>
  <g class="overlay"><rect x="250" y="170" width="2" height="6" fill="#252525" shape-rendering="crispEdges"/></g>
  <g class="overlay"><rect x="250" y="180" width="2" height="6" fill="#252525" shape-rendering="crispEdges"/></g>
  <g class="overlay"><rect x="250" y="190" width="2" height="6" fill="#252525" shape-rendering="crispEdges"/></g>
  <g class="overlay"><rect x="250" y="200" width="2" height="6" fill="#252525" shape-rendering="crispEdges"/></g>
  <g class="overlay"><rect x="250" y="210" width="2" height="6" fill="#252525" shape-rendering="crispEdges"/></g>
  <g class="overlay"><rect x="250" y="220" width="2" height="6" fill="#252525" shape-rendering="crispEdges"/></g>
  <g class="overlay"><rect x="250" y="230" width="2" height="6" fill="#252525" shape-rendering="crispEdges"/></g>
  <g class="overlay"><rect x="250" y="240" width="2" height="6" fill="#252525" shape-rendering="crispEdges"/></g>
  <g class="overlay"><rect x="250" y="250" width="2" height="6" fill="#252525" shape-rendering="crispEdges"/></g>
  <g class="overlay"><rect x="250" y="260" width="2" height="6" fill="#252525" shape-rendering="crispEdges"/></g>
  <g class="overlay"><rect x="250" y="270" width="2" height="6" fill="#252525" shape-rendering="crispEdges"/></g>
  <g class="overlay"><rect x="250" y="280" width="2" height="6" fill="#252525" shape-rendering="crispEdges"/></g>
  <g class="overlay"><rect x="300" y="0" width="2" height="6" fill="#252525" shape-rendering="crispEdges"/></g>
  <g class="overlay"><rect x="300" y="10" width="2" height="6" fill="#252525" shape-rendering="crispEdges"/></g>
  <g class="overlay"><rect x="300" y="20" width="2" height="6" fill="#252525" shape-rendering="crispEdges"/></g>
  <g class="overlay"><rect x="300" y="30" width="2" height="6" fill="#252525" shape-rendering="crispEdges"/></g>
  <g class="overlay"><rect x="300" y="40" width="2" height="6" fill="#252525" shape-rendering="crispEdges"/></g>
  <g class="overlay"><rect x="300" y="50" width="2" height="6" fill="#252525" shape-rendering="crispEdges"/></g>
  <g class="overlay"><rect x="300" y="60" width="2" height="6" fill="#252525" shape-rendering="crispEdges"/></g>
  <g class="overlay"><rect x="300" y="70" width="2" height="6" fill="#252525" shape-rendering="crispEdges"/></g>
  <g class="overlay"><rect x="300" y="80" width="2" height="6" fill="#252525" shape-rendering="crispEdges"/></g>
  <g class="overlay"><rect x="300" y="90" width="2" height="6" fill="#252525" shape-rendering="crispEdges"/></g>
  <g class="overlay"><rect x="300" y="100" width="2" height="6" fill="#252525" shape-rendering="crispEdges"/></g>
  <g class="overlay"><rect x="300" y="110" width="2" height="6" fill="#252525" shape-rendering="crispEdges"/></g>
  <g class="overlay"><rect x="300" y="120" width="2" height="6" fill="#252525" shape-rendering="crispEdges"/></g>
  <g class="overlay"><rect x="300" y="130" width="2" height="6" fill="#252525" shape-rendering="crispEdges"/></g>
  <g class="overlay"><rect x="300" y="140" width="2" height="6" fill="#252525" shape-rendering="crispEdges"/></g>
  <g class="overlay"><rect x="300" y="150" width="2" height="6" fill="#252525" shape-rendering="crispEdges"/></g>
  <g class="overlay"><rect x="300" y="160" width="2" height="6" fill="#252525" shape-rendering="crispEdges"/></g>
  <g class="overlay"><rect x="300" y="170" width="2" height="6" fill="#252525" shape-rendering="crispEdges"/></g>
  <g class="overlay"><rect x="300" y="180" width="2" height="6" fill="#252525" shape-rendering="crispEdges"/></g>
  <g class="overlay"><rect x="300" y="190" width="2" height="6" fill="#252525" shape-rendering="crispEdges"/></g>
  <g class="overlay"><rect x="300" y="200" width="2" height="6" fill="#252525" shape-rendering="crispEdges"/></g>
  <g class="overlay"><rect x="300" y="210" width="2" height="6" fill="#252525" shape-rendering="crispEdges"/></g>
  <g class="overlay"><rect x="300" y="220" width="2" height="6" fill="#252525" shape-rendering="crispEdges"/></g>
  <g class="overlay"><rect x="300" y="230" width="2" height="6" fill="#252525" shape-rendering="crispEdges"/></g>
  <g class="overlay"><rect x="300" y="240" width="2" height="6" fill="#252525" shape-rendering="crispEdges"/></g>
  <g class="overlay"><rect x="300" y="250" width="2" height="6" fill="#252525" shape-rendering="crispEdges"/></g>
  <g class="overlay"><rect x="300" y="260" width="2" height="6" fill="#252525" shape-rendering="crispEdges"/></g>
  <g class="overlay"><rect x="300" y="270" width="2" height="6" fill="#252525" shape-rendering="crispEdges"/></g>
  <g class="overlay"><rect x="300" y="280" width="2" height="6" fill="#252525" shape-rendering="crispEdges"/></g>
  <g class="overlay"><rect x="350" y="0" width="2" height="6" fill="#252525" shape-rendering="crispEdges"/></g>
  <g class="overlay"><rect x="350" y="10" width="2" height="6" fill="#252525" shape-rendering="crispEdges"/></g>
  <g class="overlay"><rect x="350" y="20" width="2" height="6" fill="#252525" shape-rendering="crispEdges"/></g>
  <g class="overlay"><rect x="350" y="30" width="2" height="6" fill="#252525" shape-rendering="crispEdges"/></g>
  <g class="overlay"><rect x="350" y="40" width="2" height="6" fill="#252525" shape-rendering="crispEdges"/></g>
  <g class="overlay"><rect x="350" y="50" width="2" height="6" fill="#252525" shape-rendering="crispEdges"/></g>
  <g class="overlay"><rect x="350" y="60" width="2" height="6" fill="#252525" shape-rendering="crispEdges"/></g>
  <g class="overlay"><rect x="350" y="70" width="2" height="6" fill="#252525" shape-rendering="crispEdges"/></g>
  <g class="overlay"><rect x="350" y="80" width="2" height="6" fill="#252525" shape-rendering="crispEdges"/></g>
  <g class="overlay"><rect x="350" y="90" width="2" height="6" fill="#252525" shape-rendering="crispEdges"/></g>
  <g class="overlay"><rect x="350" y="100" width="2" height="6" fill="#252525" shape-rendering="crispEdges"/></g>
  <g class="overlay"><rect x="350" y="110" width="2" height="6" fill="#252525" shape-rendering="crispEdges"/></g>
  <g class="overlay"><rect x="350" y="120" width="2" height="6" fill="#252525" shape-rendering="crispEdges"/></g>
  <g class="overlay"><rect x="350" y="130" width="2" height="6" fill="#252525" shape-rendering="crispEdges"/></g>
  <g class="overlay"><rect x="350" y="140" width="2" height="6" fill="#252525" shape-rendering="crispEdges"/></g>
  <g class="overlay"><rect x="350" y="150" width="2" height="6" fill="#252525" shape-rendering="crispEdges"/></g>
  <g class="overlay"><rect x="350" y="160" width="2" height="6" fill="#252525" shape-rendering="crispEdges"/></g>
  <g class="overlay"><rect x="350" y="170" width="2" height="6" fill="#252525" shape-rendering="crispEdges"/></g>
  <g class="overlay"><rect x="350" y="180" width="2" height="6" fill="#252525" shape-rendering="crispEdges"/></g>
  <g class="overlay"><rect x="350" y="190" width="2" height="6" fill="#252525" shape-rendering="crispEdges"/></g>
  <g class="overlay"><rect x="350" y="200" width="2" height="6" fill="#252525" shape-rendering="crispEdges"/></g>
  <g class="overlay"><rect x="350" y="210" width="2" height="6" fill="#252525" shape-rendering="crispEdges"/></g>
  <g class="overlay"><rect x="350" y="220" width="2" height="6" fill="#252525" shape-rendering="crispEdges"/></g>
  <g class="overlay"><rect x="350" y="230" width="2" height="6" fill="#252525" shape-rendering="crispEdges"/></g>
  <g class="overlay"><rect x="350" y="240" width="2" height="6" fill="#252525" shape-rendering="crispEdges"/></g>
  <g class="overlay"><rect x="350" y="250" width="2" height="6" fill="#252525" shape-rendering="crispEdges"/></g>
  <g class="overlay"><rect x="350" y="260" width="2" height="6" fill="#252525" shape-rendering="crispEdges"/></g>
  <g class="overlay"><rect x="350" y="270" width="2" height="6" fill="#252525" shape-rendering="crispEdges"/></g>
  <g class="overlay"><rect x="350" y="280" width="2" height="6" fill="#252525" shape-rendering="crispEdges"/></g>
  <g transform="translate(64, 64)">
    <rect x="0" y="0" width="275.6" height="160" fill="#191919" rx="0" ry="0"/>
    <g class="title-bar">
      <rect x="0" y="29" width="275.6" height="1" fill="#1a1a1a" shape-rendering="crispEdges"/>
    <circle cx="16" cy="14.5" r="4" fill="#ffffff33"/>
    <circle cx="32" cy="14.5" r="4" fill="#ffffff33"/>
    <circle cx="48" cy="14.5" r="4" fill="#ffffff33"/>
    <text x="137.8" y="19.17" fill="#FFFFFF" font-family="'Space Mono', monospace" font-size="12" text-anchor="middle" opacity="0.8">browserbase</text>
    </g>
    <path d="M 0 0 L 275.6 0 L 275.6 1 L 0 1 Z M 0 159 L 275.6 159 L 275.6 160 L 0 160 Z M 0 1 L 1 1 L 1 159 L 0 159 Z M 274.6 1 L 275.6 1 L 275.6 159 L 274.6 159 Z" fill="#222222" fill-rule="nonzero" shape-rendering="crispEdges"/>
    <g class="text">
      <text x="41.2" y="60" font-family="'Space Mono', monospace" font-size="14" fill="#FFFFFF66" text-anchor="end" xml:space="preserve">1</text>
      <text y="60" font-family="'Space Mono', monospace" font-size="14" xml:space="preserve"><tspan x="49.6" fill="#FF4500">const</tspan><tspan x="91.6" fill="#FFFFFF"> a</tspan><tspan x="108.4" fill="#FF6B35">:</tspan><tspan x="116.8" fill="#FFFFFF"> </tspan><tspan x="125.2" fill="#FF6B35">string</tspan><tspan x="175.6" fill="#FFFFFF"> </tspan><tspan x="184" fill="#FF6B35">=</tspan><tspan x="192.4" fill="#FFFFFF"> </tspan><tspan x="200.8" fill="#FFB800">&#39;cool&#39;</tspan><tspan x="251.2" fill="#FFFFFF">;</tspan></text>
      <text x="41.2" y="79.6" font-family="'Space Mono', monospace" font-size="14" fill="#FFFFFF66" text-anchor="end" xml:space="preserve">2</text>
      <text x="41.2" y="99.2" font-family="'Space Mono', monospace" font-size="14" fill="#FFFFFF66" text-anchor="end" xml:space="preserve">3</text>
      <text y="99.2" font-family="'Space Mono', monospace" font-size="14" xml:space="preserve"><tspan x="49.6" fill="#FF4500">function</tspan><tspan x="116.8" fill="#FFFFFF"> </tspan><tspan x="125.2" fill="#FFFFFF">hello</tspan><tspan x="167.2" fill="#FFFFFF">() {</tspan></text>
      <text x="41.2" y="118.8" font-family="'Space Mono', monospace" font-size="14" fill="#FFFFFF66" text-anchor="end" xml:space="preserve">4</text>
      <text y="118.8" font-family="'Space Mono', monospace" font-size="14" xml:space="preserve"><tspan x="49.6" fill="#FFFFFF">    </tspan><tspan x="83.2" fill="#FF4500">const</tspan><tspan x="125.2" fill="#FFFFFF"> a </tspan><tspan x="150.4" fill="#FF6B35">=</tspan><tspan x="158.8" fill="#FFFFFF"> </tspan><tspan x="167.2" fill="#FFB800">&#39;a&#39;</tspan><tspan x="192.4" fill="#FFFFFF">;</tspan></text>
      <text x="41.2" y="138.4" font-family="'Space Mono', monospace" font-size="14" fill="#FFFFFF66" text-anchor="end" xml:space="preserve">5</text>
      <text y="138.4" font-family="'Space Mono', monospace" font-size="14" xml:space="preserve"><tspan x="49.6" fill="#FFFFFF">}</tspan></text>
    </g>
  </g>
</svg>