<svg xmlns="http://www.w3.org/2000/svg" viewBox="0 0 403.6 298" width="403.6" height="298">
  <defs>
    <linearGradient id="bg-gradient" x1="0%" y1="0%" x2="100%" y2="100%">
      <stop offset="0%" stop-color="#0c1d26"/>
      <stop offset="100%" stop-color="#0a0c17"/>
    </linearGradient>
  </defs>
  <rect x="0" y="0" width="403.6" height="298" fill="url(#bg-gradient)" rx="0" ry="0"/>
  <g class="overlay"><defs><linearGradient id="prisma-ring-0" x1="20%" y1="0%" x2="80%" y2="100%"><stop offset="0%" stop-color="#3e4083"/><stop offset="100%" stop-color="#16544f"/></linearGradient></defs><rect x="64" y="64" width="275.6" height="170" fill="none" stroke="url(#prisma-ring-0)" stroke-width="1" rx="10" ry="10" opacity="0.6"/></g>
  <g class="overlay"><defs><linearGradient id="prisma-ring-4" x1="20%" y1="0%" x2="80%" y2="100%"><stop offset="0%" stop-color="#3e4083"/><stop offset="100%" stop-color="#16544f"/></linearGradient></defs><rect x="60" y="60" width="283.6" height="178" fill="none" stroke="url(#prisma-ring-4)" stroke-width="1" rx="13" ry="13" opacity="0.3"/></g>
  <g class="overlay"><defs><linearGradient id="prisma-ring-8" x1="20%" y1="0%" x2="80%" y2="100%"><stop offset="0%" stop-color="#3e4083"/><stop offset="100%" stop-color="#16544f"/></linearGradient></defs><rect x="56" y="56" width="291.6" height="186" fill="none" stroke="url(#prisma-ring-8)" stroke-width="1" rx="16" ry="16" opacity="0.15"/></g>
  <g transform="translate(64, 64)">
    <rect x="0" y="0" width="275.6" height="170" fill="#0b101a" rx="10" ry="10"/>
    <g class="title-bar">
      <rect x="0" y="0" width="275.6" height="39" fill="#090d15" rx="10" ry="10"/>
    <rect x="0" y="29" width="275.6" height="10" fill="#090d15"/>
    <rect x="0" y="39" width="275.6" height="1" fill="#141818" shape-rendering="crispEdges"/>
    <circle cx="16" cy="19.5" r="4" fill="#ffffff33"/>
    <circle cx="32" cy="19.5" r="4" fill="#ffffff33"/>
    <circle cx="48" cy="19.5" r="4" fill="#ffffff33"/>
    </g>
    <g class="text">
      <text x="41.2" y="70" font-family="'JetBrains Mono', monospace" font-size="14" fill="#ffffff66" text-anchor="end" xml:space="preserve">1</text>
      <text y="70" font-family="'JetBrains Mono', monospace" font-size="14" xml:space="preserve"><tspan x="49.6" fill="#71E8DF">const</tspan><tspan x="91.6" fill="#ffffff"> a</tspan><tspan x="108.4" fill="#7F9CF5">:</tspan><tspan x="116.8" fill="#ffffff"> </tspan><tspan x="125.2" fill="#71E8DF">string</tspan><tspan x="175.6" fill="#ffffff"> </tspan><tspan x="184" fill="#7F9CF5">=</tspan><tspan x="192.4" fill="#ffffff"> </tspan><tspan x="200.8" fill="#71E8DF">&#39;cool&#39;</tspan><tspan x="251.2" fill="#ffffff">;</tspan></text>
      <text x="41.2" y="89.6" font-family="'JetBrains Mono', monospace" font-size="14" fill="#ffffff66" text-anchor="end" xml:space="preserve">2</text>
      <text x="41.2" y="109.2" font-family="'JetBrains Mono', monospace" font-size="14" fill="#ffffff66" text-anchor="end" xml:space="preserve">3</text>
      <text y="109.2" font-family="'JetBrains Mono', monospace" font-size="14" xml:space="preserve"><tspan x="49.6" fill="#71E8DF">function</tspan><tspan x="116.8" fill="#ffffff"> </tspan><tspan x="125.2" fill="#71E8DF">hello</tspan><tspan x="167.2" fill="#ffffff">() {</tspan></text>
      <text x="41.2" y="128.8" font-family="'JetBrains Mono', monospace" font-size="14" fill="#ffffff66" text-anchor="end" xml:space="preserve">4</text>
      <text y="128.8" font-family="'JetBrains Mono', monospace" font-size="14" xml:space="preserve"><tspan x="49.6" fill="#ffffff">    </tspan><tspan x="83.2" fill="#71E8DF">const</tspan><tspan x="125.2" fill="#ffffff"> a </tspan><tspan x="150.4" fill="#7F9CF5">=</tspan><tspan x="158.8" fill="#ffffff"> </tspan><tspan x="167.2" fill="#71E8DF">&#39;a&#39;</tspan><tspan x="192.4" fill="#ffffff">;</tspan></text>
      <text x="41.2" y="148.4" font-family="'JetBrains Mono', monospace" font-size="14" fill="#ffffff66" text-anchor="end" xml:space="preserve">5</text>
      <text y="148.4" font-family="'JetBrains Mono', monospace" font-size="14" xml:space="preserve"><tspan x="49.6" fill="#ffffff">}</tspan></text>
    </g>
  </g>
</svg>