<svg xmlns="http://www.w3.org/2000/svg" viewBox="0 0 765.2 480" width="765.2" height="480">
  <rect x="0" y="0" width="765.2" height="480" fill="#0f172a" rx="12" ry="12"/>
  <g transform="translate(64, 64)">
    <g transform="translate(-64, -64)">
      <g class="overlay"><defs><linearGradient id="tw-beam" x1="0%" y1="0%" x2="100%" y2="0%"><stop offset="0%" stop-color="#0ea5e9" stop-opacity="0"/><stop offset="32.29%" stop-color="#0ea5e9" stop-opacity="1"/><stop offset="67.19%" stop-color="#ec4899" stop-opacity="0.3"/><stop offset="100%" stop-color="#ec4899" stop-opacity="0"/></linearGradient><filter id="tw-blur-hi" x="-5%" y="-1000%" width="110%" height="2100%"><feGaussianBlur stdDeviation="4"/></filter><filter id="tw-blur-lo" x="-5%" y="-1000%" width="110%" height="2100%"><feGaussianBlur stdDeviation="1"/></filter><linearGradient id="tw-mask-h" x1="0%" y1="0%" x2="100%" y2="0%"><stop offset="0%" stop-color="#000000"/><stop offset="8.36382645060115%" stop-color="#ffffff"/><stop offset="91.63617354939885%" stop-color="#ffffff"/><stop offset="100%" stop-color="#000000"/></linearGradient><linearGradient id="tw-mask-v" x1="0%" y1="0%" x2="0%" y2="100%"><stop offset="0%" stop-color="#000000"/><stop offset="13.333333333333334%" stop-color="#ffffff"/><stop offset="86.66666666666667%" stop-color="#ffffff"/><stop offset="100%" stop-color="#000000"/></linearGradient><mask id="tw-grid-mask"><rect x="0" y="0" width="765.2" height="64" fill="url(#tw-mask-h)"/><rect x="0" y="416" width="765.2" height="64" fill="url(#tw-mask-h)"/><rect x="0" y="0" width="64" height="480" fill="url(#tw-mask-v)"/><rect x="701.2" y="0" width="64" height="480" fill="url(#tw-mask-v)"/></mask></defs></g>
      <g class="overlay"><g mask="url(#tw-grid-mask)"><line x1="114" y1="0" x2="114" y2="64" stroke="#1e293b" stroke-width="1"/><line x1="114" y1="416" x2="114" y2="480" stroke="#1e293b" stroke-width="1"/><line x1="164" y1="0" x2="164" y2="64" stroke="#1e293b" stroke-width="1"/><line x1="164" y1="416" x2="164" y2="480" stroke="#1e293b" stroke-width="1"/><line x1="214" y1="0" x2="214" y2="64" stroke="#1e293b" stroke-width="1"/><line x1="214" y1="416" x2="214" y2="480" stroke="#1e293b" stroke-width="1"/><line x1="264" y1="0" x2="264" y2="64" stroke="#1e293b" stroke-width="1"/><line x1="264" y1="416" x2="264" y2="480" stroke="#1e293b" stroke-width="1"/><line x1="314" y1="0" x2="314" y2="64" stroke="#1e293b" stroke-width="1"/><line x1="314" y1="416" x2="314" y2="480" stroke="#1e293b" stroke-width="1"/><line x1="364" y1="0" x2="364" y2="64" stroke="#1e293b" stroke-width="1"/><line x1="364" y1="416" x2="364" y2="480" stroke="#1e293b" stroke-width="1"/><line x1="414" y1="0" x2="414" y2="64" stroke="#1e293b" stroke-width="1"/><line x1="414" y1="416" x2="414" y2="480" stroke="#1e293b" stroke-width="1"/><line x1="464" y1="0" x2="464" y2="64" stroke="#1e293b" stroke-width="1"/><line x1="464" y1="416" x2="464" y2="480" stroke="#1e293b" stroke-width="1"/><line x1="514" y1="0" x2="514" y2="64" stroke="#1e293b" stroke-width="1"/><line x1="514" y1="416" x2="514" y2="480" stroke="#1e293b" stroke-width="1"/><line x1="564" y1="0" x2="564" y2="64" stroke="#1e293b" stroke-width="1"/><line x1="564" y1="416" x2="564" y2="480" stroke="#1e293b" stroke-width="1"/><line x1="614" y1="0" x2="614" y2="64" stroke="#1e293b" stroke-width="1"/><line x1="614" y1="416" x2="614" y2="480" stroke="#1e293b" stroke-width="1"/><line x1="664" y1="0" x2="664" y2="64" stroke="#1e293b" stroke-width="1"/><line x1="664" y1="416" x2="664" y2="480" stroke="#1e293b" stroke-width="1"/><line x1="0" y1="114" x2="64" y2="114" stroke="#1e293b" stroke-width="1"/><line x1="701.2" y1="114" x2="765.2" y2="114" stroke="#1e293b" stroke-width="1"/><line x1="0" y1="164" x2="64" y2="164" stroke="#1e293b" stroke-width="1"/><line x1="701.2" y1="164" x2="765.2" y2="164" stroke="#1e293b" stroke-width="1"/><line x1="0" y1="214" x2="64" y2="214" stroke="#1e293b" stroke-width="1"/><line x1="701.2" y1="214" x2="765.2" y2="214" stroke="#1e293b" stroke-width="1"/><line x1="0" y1="264" x2="64" y2="264" stroke="#1e293b" stroke-width="1"/><line x1="701.2" y1="264" x2="765.2" y2="264" stroke="#1e293b" stroke-width="1"/><line x1="0" y1="314" x2="64" y2="314" stroke="#1e293b" stroke-width="1"/><line x1="701.2" y1="314" x2="765.2" y2="314" stroke="#1e293b" stroke-width="1"/><line x1="0" y1="364" x2="64" y2="364" stroke="#1e293b" stroke-width="1"/><line x1="701.2" y1="364" x2="765.2" y2="364" stroke="#1e293b" stroke-width="1"/><line x1="0" y1="414" x2="64" y2="414" stroke="#1e293b" stroke-width="1"/><line x1="701.2" y1="414" x2="765.2" y2="414" stroke="#1e293b" stroke-width="1"/></g></g>
      <g class="overlay"><path d="M 0 64 L 64 64 L 64 65 L 0 65 Z M 701.2 64 L 765.2 64 L 765.2 65 L 701.2 65 Z M 0 416 L 64 416 L 64 417 L 0 417 Z M 701.2 416 L 765.2 416 L 765.2 417 L 701.2 417 Z M 64 0 L 65 0 L 65 64 L 64 64 Z M 64 416 L 65 416 L 65 480 L 64 480 Z M 701.2 0 L 702.2 0 L 702.2 64 L 701.2 64 Z M 701.2 416 L 702.2 416 L 702.2 480 L 701.2 480 Z" fill="#1e293b" fill-rule="nonzero" shape-rendering="crispEdges"/></g>
      <g class="overlay"><rect x="127.72" y="438" width="509.76000000000005" height="2" fill="url(#tw-beam)" filter="url(#tw-blur-hi)"/></g>
      <g class="overlay"><rect x="127.72" y="440" width="509.76000000000005" height="2" fill="url(#tw-beam)" filter="url(#tw-blur-lo)"/></g>
    </g>
    <rect x="0" y="0" width="637.2" height="352" fill="#1e293b" rx="8" ry="8"/>
    <g class="title-bar">
      <rect x="0" y="33" width="637.2" height="1" fill="#ffffff14" shape-rendering="crispEdges"/>
    <circle cx="12" cy="16.5" r="4" fill="#475569"/>
    <circle cx="28" cy="16.5" r="4" fill="#475569"/>
    <circle cx="44" cy="16.5" r="4" fill="#475569"/>
    </g>
    <rect x="0.5" y="0.5" width="636.2" height="351" fill="none" stroke="#ffffff1a" stroke-width="1" rx="8" ry="8"/>
    <g class="text">
      <text x="20.4" y="60" font-family="'Fira Code', monospace" font-size="14" fill="#d1d5db66" text-anchor="end" xml:space="preserve">1</text>
      <text y="60" font-family="'Fira Code', monospace" font-size="14" xml:space="preserve"><tspan x="28.8" fill="#f472b6">import</tspan><tspan x="79.2" fill="#d1d5db"> { useState, useEffect } </tspan><tspan x="289.2" fill="#f472b6">from</tspan><tspan x="322.8" fill="#d1d5db"> </tspan><tspan x="331.2" fill="#7dd3fc">&#39;react&#39;</tspan><tspan x="390" fill="#d1d5db">;</tspan></text>
      <text x="20.4" y="79.6" font-family="'Fira Code', monospace" font-size="14" fill="#d1d5db66" text-anchor="end" xml:space="preserve">2</text>
      <text y="79.6" font-family="'Fira Code', monospace" font-size="14" xml:space="preserve"><tspan x="28.8" fill="#f472b6">import</tspan><tspan x="79.2" fill="#d1d5db"> { createConnection } </tspan><tspan x="264" fill="#f472b6">from</tspan><tspan x="297.6" fill="#d1d5db"> </tspan><tspan x="306" fill="#7dd3fc">&#39;./chat.js&#39;</tspan><tspan x="398.4" fill="#d1d5db">;</tspan></text>
      <text x="20.4" y="99.2" font-family="'Fira Code', monospace" font-size="14" fill="#d1d5db66" text-anchor="end" xml:space="preserve">3</text>
      <text x="20.4" y="118.8" font-family="'Fira Code', monospace" font-size="14" fill="#d1d5db66" text-anchor="end" xml:space="preserve">4</text>
      <text y="118.8" font-family="'Fira Code', monospace" font-size="14" xml:space="preserve"><tspan x="28.8" fill="#f472b6">function</tspan><tspan x="96" fill="#d1d5db"> </tspan><tspan x="104.4" fill="#99f6e4">ChatRoom</tspan><tspan x="171.6" fill="#d1d5db">({ roomId }) {</tspan></text>
      <text x="20.4" y="138.4" font-family="'Fira Code', monospace" font-size="14" fill="#d1d5db66" text-anchor="end" xml:space="preserve">5</text>
      <text y="138.4" font-family="'Fira Code', monospace" font-size="14" xml:space="preserve"><tspan x="28.8" fill="#d1d5db">  </tspan><tspan x="45.6" fill="#f472b6">const</tspan><tspan x="87.6" fill="#d1d5db"> [serverUrl, setServerUrl] </tspan><tspan x="314.4" fill="#9ca3af">=</tspan><tspan x="322.8" fill="#d1d5db"> </tspan><tspan x="331.2" fill="#99f6e4">useState</tspan><tspan x="398.4" fill="#d1d5db">(</tspan><tspan x="406.8" fill="#7dd3fc">&#39;https://localhost:1234&#39;</tspan><tspan x="608.4" fill="#d1d5db">);</tspan></text>
      <text x="20.4" y="158" font-family="'Fira Code', monospace" font-size="14" fill="#d1d5db66" text-anchor="end" xml:space="preserve">6</text>
      <text x="20.4" y="177.6" font-family="'Fira Code', monospace" font-size="14" fill="#d1d5db66" text-anchor="end" xml:space="preserve">7</text>
      <text y="177.6" font-family="'Fira Code', monospace" font-size="14" xml:space="preserve"><tspan x="28.8" fill="#d1d5db">  </tspan><tspan x="45.6" fill="#99f6e4">useEffect</tspan><tspan x="121.2" fill="#d1d5db">(() </tspan><tspan x="154.8" fill="#f472b6">=&gt;</tspan><tspan x="171.6" fill="#d1d5db"> {</tspan></text>
      <text x="20.4" y="197.2" font-family="'Fira Code', monospace" font-size="14" fill="#d1d5db66" text-anchor="end" xml:space="preserve">8</text>
      <text y="197.2" font-family="'Fira Code', monospace" font-size="14" xml:space="preserve"><tspan x="28.8" fill="#d1d5db">    </tspan><tspan x="62.4" fill="#f472b6">const</tspan><tspan x="104.4" fill="#d1d5db"> connection </tspan><tspan x="205.2" fill="#9ca3af">=</tspan><tspan x="213.6" fill="#d1d5db"> </tspan><tspan x="222" fill="#99f6e4">createConnection</tspan><tspan x="356.4" fill="#d1d5db">(serverUrl, roomId);</tspan></text>
      <text x="20.4" y="216.8" font-family="'Fira Code', monospace" font-size="14" fill="#d1d5db66" text-anchor="end" xml:space="preserve">9</text>
      <text y="216.8" font-family="'Fira Code', monospace" font-size="14" xml:space="preserve"><tspan x="28.8" fill="#d1d5db">    connection.</tspan><tspan x="154.8" fill="#99f6e4">connect</tspan><tspan x="213.6" fill="#d1d5db">();</tspan></text>
      <text x="20.4" y="236.4" font-family="'Fira Code', monospace" font-size="14" fill="#d1d5db66" text-anchor="end" xml:space="preserve">10</text>
      <text y="236.4" font-family="'Fira Code', monospace" font-size="14" xml:space="preserve"><tspan x="28.8" fill="#d1d5db">    </tspan><tspan x="62.4" fill="#f472b6">return</tspan><tspan x="112.8" fill="#d1d5db"> () </tspan><tspan x="146.4" fill="#f472b6">=&gt;</tspan><tspan x="163.2" fill="#d1d5db"> {</tspan></text>
      <text x="20.4" y="256" font-family="'Fira Code', monospace" font-size="14" fill="#d1d5db66" text-anchor="end" xml:space="preserve">11</text>
      <text y="256" font-family="'Fira Code', monospace" font-size="14" xml:space="preserve"><tspan x="28.8" fill="#d1d5db">      connection.</tspan><tspan x="171.6" fill="#99f6e4">disconnect</tspan><tspan x="255.6" fill="#d1d5db">();</tspan></text>
      <text x="20.4" y="275.6" font-family="'Fira Code', monospace" font-size="14" fill="#d1d5db66" text-anchor="end" xml:space="preserve">12</text>
      <text y="275.6" font-family="'Fira Code', monospace" font-size="14" xml:space="preserve"><tspan x="28.8" fill="#d1d5db">    };</tspan></text>
      <text x="20.4" y="295.2" font-family="'Fira Code', monospace" font-size="14" fill="#d1d5db66" text-anchor="end" xml:space="preserve">13</text>
      <text y="295.2" font-family="'Fira Code', monospace" font-size="14" xml:space="preserve"><tspan x="28.8" fill="#d1d5db">  }, [serverUrl, roomId]);</tspan></text>
      <text x="20.4" y="314.8" font-family="'Fira Code', monospace" font-size="14" fill="#d1d5db66" text-anchor="end" xml:space="preserve">14</text>
      <text y="314.8" font-family="'Fira Code', monospace" font-size="14" xml:space="preserve"><tspan x="28.8" fill="#d1d5db">  </tspan><tspan x="45.6" fill="#64748b">// ...</tspan></text>
      <text x="20.4" y="334.4" font-family="'Fira Code', monospace" font-size="14" fill="#d1d5db66" text-anchor="end" xml:space="preserve">15</text>
      <text y="334.4" font-family="'Fira Code', monospace" font-size="14" xml:space="preserve"><tspan x="28.8" fill="#d1d5db">}</tspan></text>
    </g>
  </g>
</svg>